<svg width="36" height="37" viewBox="0 0 36 37" fill="none" xmlns="http://www.w3.org/2000/svg">
<g filter="url(#filter0_d_1008_46739)">
<mask id="mask0_1008_46739" style="mask-type:luminance" maskUnits="userSpaceOnUse" x="6" y="2" width="24" height="25">
<path d="M6 14.4999C6 7.87523 11.3703 2.50488 17.995 2.50488C24.6197 2.50488 29.99 7.87523 29.99 14.4999C29.99 21.1245 24.6197 26.4949 17.995 26.4949C11.3703 26.4949 6 21.1245 6 14.4999Z" fill="white"/>
</mask>
<g mask="url(#mask0_1008_46739)">
<path fill-rule="evenodd" clip-rule="evenodd" d="M0.00195312 14.4999C0.00195312 7.87523 5.3723 2.50488 11.997 2.50488H23.9919C30.6166 2.50488 35.9869 7.87523 35.9869 14.4999C35.9869 21.1245 30.6166 26.4949 23.992 26.4949H11.997C5.3723 26.4949 0.00195312 21.1245 0.00195312 14.4999Z" fill="#199D00"/>
<path fill-rule="evenodd" clip-rule="evenodd" d="M9.35624 10.1467C9.17567 9.54477 8.99566 9.64733 9.06663 10.2717C9.10562 10.6147 9.21109 10.9021 9.45781 10.9544C9.91541 10.9967 9.80742 10.3542 9.84845 9.99667C9.86503 9.85221 10.0372 9.67249 10.0431 9.81779V10.6884C10.0403 10.8535 10.0986 10.9497 10.1761 11.0136C10.2869 11.1049 10.4555 11.0714 10.5832 11.1371C10.6755 11.1845 10.6839 11.3075 10.6885 11.4112L10.7037 11.7504C10.7308 12.357 11.1075 12.5241 11.1168 11.9169C11.1294 11.5532 11.078 11.2267 11.0625 11.0145C11.0514 10.863 11.1092 10.6639 11.2566 10.7007C11.2923 10.7096 11.3305 10.7326 11.3591 10.7558C11.4807 10.8545 11.5567 10.9581 11.7649 10.906C12.1228 10.8093 12.3356 10.6352 12.3453 10.3643C12.3335 10.109 12.2822 9.85721 12.1931 9.61782C12.1853 9.5969 12.185 9.58122 12.1812 9.55922C12.1675 9.4791 12.2322 9.47426 12.2873 9.41452C12.2919 9.40958 12.296 9.40389 12.2997 9.39748C12.31 9.3794 12.3083 9.35741 12.3018 9.33764C12.2602 9.21041 12.2064 9.0908 12.1318 9.00195C12.0592 8.91551 11.9613 8.83129 11.8484 8.82981C11.8255 8.82951 11.8027 8.83326 11.7808 8.84136C11.618 8.90145 11.6136 9.12851 11.6449 9.29913C11.6783 9.48076 11.7515 9.65357 11.8599 9.80474C11.8947 9.85321 11.9291 9.90273 11.9481 9.95928C11.9543 9.9777 11.9598 9.99632 11.9646 10.0151C12.0094 10.1881 11.8679 10.3841 11.7287 10.2719C11.709 10.2559 11.6872 10.2358 11.6672 10.2201C11.6405 10.1993 11.5995 10.1668 11.5581 10.1322C11.4502 10.0419 11.4258 9.91251 11.4401 9.77256C11.4554 9.62278 11.4509 9.5348 11.438 9.46965C11.4164 9.36015 11.384 9.23431 11.3294 9.13695C11.2481 8.99191 11.0743 8.80135 10.9862 8.94235C10.8605 9.16 10.9185 9.62432 11.0104 9.8323C11.024 9.87131 11.0389 9.90737 11.0535 9.94009C11.1106 10.0682 11.0435 10.2609 10.9718 10.1403C10.9621 10.1241 10.9498 10.094 10.9451 10.0758C10.8783 9.81794 10.8465 9.55219 10.8508 9.28575C10.8318 9.11535 10.8129 8.7967 10.7359 8.61068C10.6996 8.52272 10.6251 8.41906 10.5305 8.42946C10.4067 8.44307 10.3909 8.60432 10.3897 8.72882C10.389 8.80392 10.3905 8.87902 10.3941 8.95402C10.4011 9.09779 10.4326 9.23884 10.4634 9.37944C10.5204 9.63994 10.5465 9.89181 10.5848 10.1709C10.5983 10.6142 10.3933 9.92061 10.3592 9.47834C10.3506 9.36632 10.3348 9.27601 10.3139 9.23255C10.2449 9.05999 9.99565 9.12042 9.893 9.27535C9.84732 9.3443 9.80325 9.43252 9.76857 9.5377C9.7189 9.6884 9.69181 9.84591 9.66099 10.0016C9.64989 10.0576 9.63933 10.118 9.63193 10.1757C9.59808 10.3934 9.45781 10.5481 9.35624 10.1467Z" fill="white"/>
<path fill-rule="evenodd" clip-rule="evenodd" d="M10.638 11.6048C10.638 11.6067 10.6369 11.6085 10.6351 11.6094L10.2276 11.8053C9.73462 12.0422 9.44541 11.7134 9.93585 11.4713C10.0696 11.4052 10.2037 11.3638 10.3237 11.3613C10.6321 11.371 10.5564 11.4814 10.6371 11.6018C10.6377 11.6027 10.638 11.6037 10.638 11.6048Z" fill="white"/>
<path fill-rule="evenodd" clip-rule="evenodd" d="M10.3762 12.0744C10.3762 12.0753 10.376 12.0761 10.3757 12.0769C9.61685 14.0277 12.0111 14.3703 12.4705 12.4232C12.5116 12.2494 12.6613 11.9462 12.6785 12.1241C12.6156 14.1555 10.6374 14.2909 10.2988 13.6525C10.2166 13.5074 10.1924 13.1688 10.1827 12.9656C10.1344 12.569 9.92156 12.7238 9.89254 13.1204C9.85868 13.3381 9.86352 13.4009 9.86352 13.6138C9.96993 15.2099 12.5237 14.5231 12.9397 13.2026C12.9949 13.0173 13.0196 12.8441 13.0277 12.6889C13.0535 12.1942 13.3993 12.2593 13.7087 11.8726C13.7854 11.7629 13.9356 11.9135 14.0685 11.9292C14.2485 11.9504 14.4492 11.8631 14.5019 11.6839C14.5238 11.5441 14.5442 11.4027 14.5595 11.2589C14.5769 11.0956 14.3189 10.9073 14.2939 11.0697L14.2601 11.2921C14.2576 11.3038 14.2514 11.3135 14.2428 11.3213C14.1514 11.4039 14.1068 11.1951 14.0179 11.1097C13.9452 11.0397 13.8424 11.048 13.7481 11.1659C13.6446 11.2951 13.5525 11.4976 13.395 11.4465C13.37 11.4384 13.3493 11.4243 13.336 11.4034C13.3212 11.3801 13.3245 11.3312 13.3248 11.3037C13.328 11.0599 12.9619 10.905 12.9295 10.6634L12.7976 9.68085C12.7832 9.57368 12.8573 9.521 12.9621 9.49448C13.0193 9.48001 13.0355 9.40125 13.0172 9.34513C12.9443 9.12141 12.8345 8.8055 12.7403 8.61914C12.6839 8.50759 12.5786 8.43333 12.456 8.45785C12.3302 8.49654 12.2142 8.60295 12.2528 8.81092L12.6398 11.2389C12.6803 11.4518 12.3832 11.3855 12.2344 11.2279C12.1583 11.1473 12.0662 11.0841 11.9046 11.089C11.6676 11.089 11.4016 11.3454 11.3726 11.592C11.288 11.9678 11.5335 12.4013 11.9046 12.2982C12.1239 12.2074 12.2481 12.267 12.1314 12.4737C12.0396 12.636 11.8641 12.8317 11.5419 13.0043C11.1356 13.1881 10.8067 13.2268 10.6326 12.8931C10.5266 12.686 10.6413 11.8983 10.3794 12.0687C10.3775 12.07 10.3762 12.0722 10.3762 12.0744Z" fill="white"/>
<path fill-rule="evenodd" clip-rule="evenodd" d="M13.7268 10.0055C13.7268 10.0034 13.7278 10.0017 13.7298 10.0009C13.8591 9.95213 14.3387 9.42028 14.543 9.18918C14.5939 9.1316 14.5854 9.04332 14.5249 8.99595C14.46 8.93826 14.5747 8.86943 14.6158 8.79299C14.6445 8.73992 14.65 8.67821 14.6408 8.61887C14.6194 8.48134 14.49 8.38215 14.3508 8.38215C14.2113 8.38215 14.0791 8.47507 14.0418 8.60946C14.041 8.61205 14.0403 8.61464 14.0397 8.61724C13.9937 8.79745 14.3662 8.96681 14.225 9.08785C14.0302 9.29485 13.6246 9.59575 13.3748 9.79637C13.2193 9.92127 13.2769 10.026 13.4764 10.0249C13.5989 10.0242 13.7141 10.0184 13.7261 10.0077C13.7268 10.0071 13.7268 10.0064 13.7268 10.0055ZM9.18518 13.0491C8.90465 13.4989 8.88047 14.1712 9.04008 14.3695C9.11747 14.4662 9.25289 14.5049 9.35446 14.4759C9.49248 14.4162 9.57009 14.1897 9.5784 14.0293C9.58254 13.9493 9.55727 13.8311 9.47723 13.8294C9.41142 13.828 9.39211 13.9138 9.3519 13.9659C9.26235 14.082 9.22245 13.9377 9.2142 13.8181C9.19485 13.5521 9.21904 13.3006 9.24806 13.1071C9.28191 12.9088 9.24806 12.9669 9.18518 13.0491ZM21.2515 12.3635C21.2354 12.3142 21.2226 12.2999 21.2002 12.2531C20.9326 11.6923 20.5804 11.149 20.4643 10.9355C20.0996 10.3579 19.7124 9.79476 19.3035 9.24746C19.1774 9.09608 19.2514 9.10372 19.3281 9.10393C19.6913 9.10493 19.0687 8.58182 18.7909 8.34783C18.699 8.28012 18.4765 8.16404 18.4378 8.3575C18.4186 8.49616 18.4251 8.63718 18.4571 8.77346C18.4765 8.87019 18.6167 9.0298 18.6893 9.12654C19.4641 10.1664 20.1666 11.22 20.8376 12.4641C21.0509 12.8596 21.3904 12.7908 21.2515 12.3635Z" fill="white"/>
<path fill-rule="evenodd" clip-rule="evenodd" d="M20.521 14.0345C20.2176 14.2268 20.0537 14.6114 20.4129 14.6114C20.8192 14.5631 21.1723 14.3357 21.5012 13.7408C21.5882 13.5957 21.743 13.3055 21.7478 13.0685C21.7817 11.7143 21.6801 10.6599 21.477 9.68284C21.4725 9.63772 21.4722 9.5884 21.4746 9.54566C21.4786 9.47504 21.5099 9.4349 21.5785 9.41761C21.6269 9.40543 21.6663 9.34568 21.6607 9.29616C21.64 9.11516 21.4445 8.67449 21.327 8.48818C21.2738 8.38661 21.2545 8.31889 21.1723 8.49785C20.9364 8.87024 21.0613 9.35505 21.114 9.79267C21.2434 10.8665 21.3045 11.8638 21.4093 12.9718C21.41 12.9813 21.4105 12.991 21.4109 13.001C21.4207 13.2581 21.2309 13.4647 21.0407 13.638C20.8792 13.785 20.7053 13.9177 20.521 14.0345ZM25.7468 14.1571C25.576 14.2364 25.2989 14.3373 25.2726 14.5238C25.245 14.72 25.5426 14.6481 25.7382 14.6167C26.0628 14.5645 26.4012 14.4548 26.6522 14.0746C26.7393 13.9343 26.8457 13.557 26.8505 13.3297C26.8796 11.9754 26.8312 10.9597 26.6281 9.98272C26.6184 9.88598 26.5749 9.66833 26.5894 9.63931C26.6503 9.49706 26.8016 9.4876 26.7228 9.35436C26.6091 9.16202 26.4072 8.89101 26.3137 8.74452C26.2605 8.64779 26.2411 8.58008 26.1589 8.75903C26.067 8.90413 26.038 9.16531 26.0718 9.39264C26.2895 10.8436 26.4491 11.9319 26.4781 13.2136C26.4512 13.4465 26.335 13.6568 26.1852 13.8371C26.1234 13.9114 26.0609 13.9774 25.9993 14.0214C25.937 14.0675 25.8406 14.1136 25.7468 14.1571Z" fill="white"/>
<path fill-rule="evenodd" clip-rule="evenodd" d="M25.7124 12.9867V12.1016C25.7087 11.8811 25.6593 11.6637 25.5673 11.4632C25.4803 11.2697 25.5335 11.1198 25.4948 10.9118C25.4561 10.7087 25.4657 10.3991 25.4077 10.1573C25.3949 10.0933 25.3694 9.94045 25.3592 9.83588C25.3525 9.76661 25.3705 9.70068 25.4399 9.69596C25.4934 9.69233 25.528 9.62892 25.5212 9.57579C25.4933 9.35718 25.2589 8.77442 25.132 8.59019C25.0175 8.38195 24.7663 8.79005 24.7937 9.02611C24.8024 9.10089 24.8173 9.18011 24.8321 9.25765C25.1223 10.7715 25.3352 12.1452 25.2916 13.5817C25.2771 13.7074 25.7173 13.2189 25.7124 12.9867ZM23.5698 11.1053C23.5698 11.1079 23.5677 11.1101 23.5651 11.11C23.4025 11.1045 23.082 10.8185 22.9352 10.6144C22.9048 10.5722 22.8815 10.5246 22.8751 10.4731C22.872 10.4478 22.8715 10.4221 22.8735 10.3966C22.8739 10.392 22.8744 10.3875 22.8749 10.383C22.8857 10.2908 22.953 10.2105 23.0429 10.1877C23.0798 10.1783 23.1173 10.1774 23.1507 10.1916C23.1628 10.1968 23.165 10.1956 23.1721 10.2066C23.2064 10.2593 23.2971 10.3766 23.3536 10.3492C23.3684 10.3421 23.3782 10.3302 23.3834 10.3161C23.3855 10.3103 23.3863 10.3041 23.3864 10.298C23.3867 10.2738 23.3817 10.2526 23.3754 10.2311C23.353 10.1545 23.3529 10.0678 23.4042 10.0066C23.4943 9.89901 23.6604 9.90005 23.7294 10.0073C23.7971 10.0896 23.8213 10.2637 23.8309 10.3846C23.8309 10.4426 23.7342 10.3701 23.6762 10.3846C23.623 10.4039 23.6085 10.4668 23.6036 10.5249C23.5939 10.6796 23.5746 10.9263 23.5698 11.1053ZM20.2034 13.364C20.2518 12.8997 20.1889 12.0823 20.1841 11.8114C20.1647 11.1681 20.0583 9.92512 20.01 9.72198C19.9519 9.3302 20.1696 9.76551 20.1405 9.53818C20.068 9.15125 19.8503 8.88039 19.5988 8.52248C19.4806 8.36249 19.3299 8.64374 19.3282 8.84267C19.3266 9.0196 19.3877 9.17089 19.4102 9.33504C19.594 10.1428 19.7004 10.8828 19.7488 11.618C19.7854 12.135 19.8003 12.6533 19.7932 13.1713C19.7876 13.5843 20.1145 13.7673 20.2034 13.364Z" fill="white"/>
<path fill-rule="evenodd" clip-rule="evenodd" d="M26.3349 12.6229C26.3359 12.6229 26.3365 12.6218 26.336 12.621C26.0119 12.0846 25.5292 11.5005 25.3988 11.2831C24.9657 10.6751 24.5108 10.0831 24.0348 9.50802C23.6334 9.08723 24.2186 9.44031 23.9574 9.11625C23.735 8.87442 23.6672 8.79703 23.4834 8.65193C23.3867 8.58905 23.3287 8.47297 23.2997 8.67128C23.2851 8.8454 23.2755 9.04854 23.2851 9.19848C23.2851 9.2807 23.3722 9.43064 23.4448 9.52253C24.3607 10.6537 25.3634 11.811 26.1941 13.2324C26.2717 13.365 26.3977 13.3668 26.4064 13.2134C26.4192 12.9877 26.3853 12.6904 26.3338 12.6248C26.3332 12.6239 26.3339 12.6229 26.3349 12.6229Z" fill="white"/>
<path fill-rule="evenodd" clip-rule="evenodd" d="M11.7458 11.6268C11.7436 11.6307 11.7412 11.6347 11.7386 11.6387C11.6861 11.7218 11.7155 11.8314 11.8135 11.8396C11.8323 11.8396 11.8556 11.8411 11.8778 11.8411C11.9323 11.8413 11.9785 11.8001 11.9869 11.7461C11.9911 11.7189 11.988 11.6911 11.9779 11.6655C11.9296 11.53 11.7748 11.5784 11.7458 11.6268Z" fill="#1BA400"/>
<path fill-rule="evenodd" clip-rule="evenodd" d="M22.522 19.1392C22.7182 19.1265 22.8623 19.5049 23.0587 19.513C23.2506 19.5209 23.4277 19.5317 23.6311 19.5533C23.6719 19.5576 23.713 19.5578 23.7538 19.5534L24.1374 19.5117C24.2371 19.502 24.3178 19.5246 24.3831 19.5671C24.7942 19.834 24.7417 20.629 24.2632 20.7354C24.075 20.7643 23.8715 20.6115 23.6827 20.5867C23.6795 20.5863 23.6763 20.5859 23.6731 20.5854C23.4942 20.5757 23.3152 20.5757 23.1411 20.5612C23.0527 20.5546 22.9835 20.5591 22.9164 20.5641C22.7568 20.5759 22.6058 20.721 22.4494 20.687C22.3562 20.6777 22.245 20.4212 22.2674 20.2208C22.2691 20.2059 22.2859 20.1645 22.2921 20.1508C22.3288 20.0695 22.2459 20.0275 22.1567 20.0252C20.4481 19.9812 18.7318 19.909 17.0565 19.9325C15.7023 19.9325 14.3722 19.9905 13.0421 20.0485C12.2556 20.0378 12.4712 19.4355 13.2576 19.4487C13.4586 19.4521 13.6309 19.4513 13.7434 19.444C14.7107 19.4295 15.5862 19.3521 16.568 19.323C18.2952 19.3533 20.003 19.3565 21.726 19.4532C21.8982 19.4629 22.2398 19.0666 22.4018 19.0072C22.4229 18.9995 22.4549 18.9983 22.4619 19.0198C22.4755 19.0619 22.4917 19.1392 22.522 19.1392ZM15.0601 9.46955C14.9825 8.99217 14.7134 9.08478 14.7556 9.56658C14.7684 9.71305 14.798 9.85137 14.8388 9.97469C14.9966 10.452 15.6132 10.4306 15.7396 9.94404C15.7554 9.88333 15.7701 9.82018 15.7839 9.75586C15.7942 9.70788 15.8235 9.62505 15.8559 9.58822C15.9221 9.51303 15.9427 9.65386 15.9431 9.75407C15.9451 10.264 16.0065 10.3965 16.1569 10.5735C16.2515 10.6579 16.3732 10.7058 16.5 10.7085C16.6269 10.7111 16.7505 10.6684 16.8486 10.588L17.1339 10.2978C17.2559 10.1758 17.3975 10.3745 17.5083 10.5066C17.5366 10.5404 17.575 10.5732 17.6321 10.6025C17.7869 10.6654 18.1254 10.617 18.2028 10.4816C18.3044 10.3026 18.3334 10.2397 18.3818 10.172C18.4255 10.1138 18.4884 10.1046 18.5316 10.114C18.5724 10.1228 18.5747 10.1682 18.5555 10.2053C18.5512 10.2137 18.5469 10.2225 18.543 10.2316C18.5101 10.3097 18.5934 10.4161 18.6708 10.3814C18.7012 10.3678 18.7266 10.3594 18.7532 10.3393C18.8297 10.2818 18.8965 10.1749 18.9458 10.078C19.0133 9.94538 19.0347 9.6945 18.9041 9.76574C18.8087 9.83254 18.7004 9.89077 18.5839 9.89209C18.5148 9.89287 18.4463 9.87467 18.4011 9.80443C18.3403 9.69293 18.3196 9.54838 18.2896 9.41531C18.265 9.30618 18.2095 9.20183 18.1918 9.09136C18.1904 9.08273 18.1894 9.07425 18.1889 9.06607C18.1843 8.99452 18.2684 8.99767 18.3399 8.99354C18.4193 8.98896 18.4523 8.88312 18.4285 8.80729C18.3895 8.68326 18.2691 8.51234 18.1786 8.41146C18.0722 8.29538 17.9175 8.28087 17.7724 8.40179C17.6756 8.49852 17.6853 8.59526 17.666 8.69683C17.6492 8.7674 17.6493 8.84091 17.6661 8.91146C17.6994 9.05147 17.7992 9.16592 17.8658 9.29353C17.9099 9.37816 17.9525 9.47219 17.9781 9.57804C18.0324 9.80236 17.9191 10.0998 17.6901 10.0704C17.6127 10.0511 17.487 10.0221 17.4193 9.51907C17.3903 9.28991 17.3995 9.00683 17.3772 8.76371C17.3514 8.48346 17.1642 8.07355 17.0275 8.31957C16.9888 8.4163 16.8244 8.57107 16.9404 8.8903C17.0145 9.0784 17.0539 9.27747 17.0578 9.478C17.0615 9.67464 16.995 9.8714 16.8631 10.0172C16.7421 10.1478 16.6067 10.114 16.5051 10.0656C16.2879 9.92443 16.2936 9.6301 16.2961 9.37106C16.2985 9.111 16.2916 8.85499 16.2536 8.77905C16.1666 8.60493 16.0215 8.66781 15.9586 8.72101C15.6779 9.03225 15.4903 9.416 15.4169 9.82861C15.3414 10.073 15.1166 9.79779 15.0729 9.5458C15.0686 9.52082 15.0643 9.49533 15.0601 9.46955Z" fill="white"/>
<path fill-rule="evenodd" clip-rule="evenodd" d="M15.7245 10.665C15.7236 10.665 15.7233 10.6638 15.724 10.6633C15.854 10.5693 15.7976 10.5087 15.982 10.6931C15.9889 10.7 15.995 10.7079 15.9998 10.7164C16.2449 11.1517 16.3902 11.6358 16.4256 12.1339C16.4272 12.1574 16.4249 12.1968 16.4277 12.2202C16.4427 12.345 16.544 12.2576 16.6245 12.1611C16.8308 11.9137 17.375 11.6498 17.8789 11.6033C18.0917 11.5607 17.904 11.1842 17.9839 10.9825C18.0083 10.921 18.0416 10.8643 18.0825 10.8147C18.2722 10.5845 18.6548 10.582 18.8793 10.7784C19.0136 10.8959 19.0679 11.0658 19.0735 11.2792C19.0278 11.9426 18.372 12.0867 17.9532 12.1413C17.9071 12.1473 17.8456 12.1472 17.8286 12.1904C17.8087 12.2409 17.9116 12.2418 17.9658 12.242L19.5651 12.2465C19.5885 12.2465 19.6115 12.2525 19.6319 12.2639C19.6674 12.2836 19.6875 12.3176 19.6552 12.3421C19.6392 12.3543 19.6178 12.3749 19.5911 12.4158C19.4047 12.7017 19.2005 13.026 18.8672 13.099C18.6425 13.1482 18.4158 13.1882 18.1878 13.2187C17.9621 13.2489 17.6744 13.2776 17.6067 13.4951C17.5943 13.5351 17.5928 13.577 17.6032 13.6202C17.6344 13.6993 17.7523 13.7772 17.8633 13.8369C17.9969 13.9087 18.1627 13.9336 18.1726 14.0851C18.1816 14.2216 17.9773 14.3397 17.8413 14.3245C17.2183 14.2549 16.7218 13.9991 16.4631 13.6412C16.3765 13.5214 16.2418 13.3895 16.1619 13.5138C16.0397 13.7015 15.895 13.8718 15.7317 14.0215C15.2789 14.4365 14.4889 14.7443 14.1256 14.249C13.9936 14.093 13.8679 14.0079 13.6788 14.0853C13.3495 14.22 12.8491 14.4142 12.5967 14.4596C12.45 14.4859 12.5053 14.3314 12.618 14.2338C12.9103 13.9811 13.3052 13.765 13.6964 13.5232C13.932 13.3777 14.0768 13.1426 14.1785 12.885C14.181 12.8786 14.1836 12.8722 14.1862 12.8659C14.2793 12.6395 14.3568 12.6937 14.3674 12.9382C14.3674 13.0198 14.4156 13.0158 14.4796 12.9651C14.6329 12.8439 14.9253 12.6021 15.077 12.4335C15.1497 12.3526 15.2093 12.2188 15.2061 12.11C15.2023 11.9836 15.1735 11.8869 15.1068 11.7794C14.9936 11.597 14.8663 11.5542 14.8124 11.4195C14.7962 11.3622 14.7861 11.303 14.7822 11.2454C14.7637 10.9733 15.0676 10.7116 15.2719 10.8923C15.4053 11.0079 15.5182 11.2256 15.5656 11.4028C15.5736 11.4326 15.5816 11.4646 15.5514 11.471C15.4441 11.4937 15.4081 11.5133 15.453 11.6134C15.4788 11.6708 15.4979 11.7335 15.5137 11.8016C15.6105 12.1885 15.5766 12.3336 15.4896 12.5851C15.18 13.2332 14.7834 13.4316 14.4352 13.6686C14.4313 13.6705 14.4282 13.6979 14.4342 13.7356C14.4581 13.886 14.5614 13.9649 14.7137 13.9686C14.86 13.972 15.0528 13.8919 15.1743 13.8104C15.2835 13.7372 15.3866 13.6558 15.4828 13.5672C15.9341 13.1513 16.1126 12.5105 15.9537 11.9177C15.9427 11.8767 15.9314 11.8364 15.92 11.7968C15.8173 11.5488 15.7229 11.2975 15.6367 11.0433C15.6321 11.0298 15.6294 11.0156 15.6288 11.0013C15.6214 10.8252 15.638 10.7587 15.7251 10.6665C15.7256 10.6659 15.7253 10.665 15.7245 10.665ZM11.2333 8.85604C11.4267 8.94794 11.7992 8.90441 11.7846 8.59002C11.7782 8.49069 11.7401 8.34031 11.6544 8.39091C11.6301 8.40524 11.6097 8.43201 11.6009 8.46911C11.5793 8.53373 11.5264 8.58662 11.5115 8.52016C11.5092 8.50987 11.5082 8.49777 11.509 8.48362C11.509 8.47019 11.5048 8.45676 11.4989 8.4443C11.4864 8.41781 11.4609 8.39656 11.4316 8.39656C11.4291 8.39656 11.4269 8.39662 11.4249 8.39676C11.3905 8.39918 11.3845 8.4481 11.3777 8.48198C11.3749 8.49593 11.375 8.5105 11.3709 8.52412C11.3672 8.53617 11.3599 8.5429 11.3497 8.5471C11.3402 8.55098 11.3271 8.55224 11.3169 8.5508C11.3004 8.54846 11.289 8.53681 11.2773 8.52474C11.2713 8.51844 11.2671 8.51104 11.2671 8.49813L11.2626 8.46159C11.2592 8.435 11.2489 8.40761 11.2243 8.3969C11.2145 8.39263 11.2036 8.39137 11.193 8.39266C11.1861 8.39349 11.1797 8.39486 11.1738 8.3967C11.0585 8.43238 11.076 8.65291 11.1323 8.75967C11.1535 8.79986 11.1855 8.83603 11.2333 8.85604Z" fill="white"/>
<path fill-rule="evenodd" clip-rule="evenodd" d="M17.0161 11.3029C17.194 11.3919 17.6092 11.35 17.5845 11.1056C17.5797 11.059 17.5659 11.0131 17.5628 10.9664C17.5595 10.917 17.555 10.8573 17.51 10.8367C17.4634 10.8155 17.4042 10.8476 17.3837 10.916C17.3726 10.9826 17.3121 11.0349 17.2956 10.9694C17.2932 10.9597 17.2918 10.9484 17.2918 10.9354C17.2918 10.9222 17.2878 10.9091 17.2822 10.8969C17.2693 10.8692 17.245 10.8483 17.2144 10.8483C17.1796 10.8483 17.1722 10.8948 17.1654 10.9289L17.1612 10.9499C17.1563 10.9837 17.1418 10.9982 17.1225 10.9982C17.0929 10.9982 17.0578 10.9825 17.0509 10.9538C17.0503 10.9512 17.0499 10.9483 17.0499 10.945C17.0499 10.9208 17.0499 10.8822 17.0403 10.8676C17.0199 10.8371 16.9706 10.8382 16.9387 10.8566C16.9348 10.8588 16.9311 10.8614 16.9276 10.8641C16.8449 10.9299 16.8664 11.0724 16.9026 11.1717C16.9219 11.2248 16.9563 11.277 17.0161 11.3029ZM20.3921 10.2872C20.5856 10.384 20.958 10.3404 20.9435 10.0261C20.9371 9.92673 20.8999 9.77696 20.8131 9.82577C20.7889 9.8394 20.7685 9.86503 20.7597 9.9003C20.741 9.96556 20.6853 10.0225 20.6703 9.95631C20.668 9.94601 20.667 9.93386 20.6678 9.91965C20.6678 9.90804 20.6639 9.89642 20.6586 9.88543C20.6449 9.85669 20.6174 9.83259 20.5856 9.83259C20.5823 9.83259 20.5795 9.83276 20.5771 9.83311C20.5463 9.83756 20.5437 9.88206 20.5376 9.91261C20.5341 9.93016 20.5351 9.94919 20.5268 9.96508C20.5257 9.96729 20.5244 9.96932 20.5229 9.97119C20.5089 9.98907 20.4798 9.99236 20.462 9.97828C20.4601 9.97675 20.4578 9.97495 20.455 9.97285C20.4404 9.96318 20.4259 9.95351 20.4259 9.93416C20.4259 9.90998 20.4211 9.87128 20.4114 9.85194C20.4081 9.84701 20.4043 9.84321 20.3997 9.84013C20.3782 9.82571 20.3402 9.82622 20.317 9.83772C20.2099 9.89081 20.234 10.0728 20.2846 10.181C20.3056 10.2258 20.3392 10.2668 20.3921 10.2872ZM22.1351 12.8362C22.1339 12.8362 22.1329 12.8367 22.1321 12.8375C21.7951 13.2246 21.9447 13.8617 22.022 13.997C22.0479 14.0488 22.0724 14.0962 22.0972 14.1399C22.2618 14.4297 22.6758 14.6901 22.8927 14.4371C22.9948 14.3326 23.0456 14.1448 23.0831 13.9705C23.1391 13.7108 23.3245 13.3202 23.5069 13.5133C23.6549 13.7216 23.89 13.9045 24.1455 13.902C24.2387 13.9011 24.3347 13.871 24.4307 13.8084C24.5807 13.7213 24.6822 13.61 24.7693 13.3924C24.866 13.1264 24.8177 11.9075 24.7935 11.1869C24.7886 11.1288 24.6 10.1905 24.6 10.1808C24.6 10.1717 24.5741 9.75169 24.5549 9.61196C24.5529 9.5977 24.5512 9.57679 24.55 9.56244C24.5468 9.5225 24.6008 9.55694 24.6342 9.57909C24.6361 9.58038 24.638 9.58158 24.6398 9.58273C24.6608 9.59585 24.6876 9.60591 24.7075 9.59121C24.7269 9.57686 24.7425 9.54835 24.7474 9.51465C24.7546 9.46533 24.7283 9.41882 24.7045 9.37504L24.3135 8.65703C24.2822 8.59945 24.2617 8.52996 24.1961 8.5317C24.144 8.53309 24.0989 8.60028 24.0685 8.64266C24.0556 8.66067 24.0444 8.67996 24.0352 8.70026C24.0152 8.74449 24.0049 8.79251 24.0051 8.84107C24.0196 9.04904 24.0535 9.25702 24.068 9.465L24.2614 10.5194C24.3195 11.2739 24.334 11.8882 24.392 12.6475C24.3848 12.8832 24.3286 13.0998 24.2602 13.2078C24.2244 13.2643 24.1961 13.2804 24.1327 13.3017C24.0394 13.333 23.9157 13.2466 23.8554 13.1688C23.8236 13.1277 23.7888 13.0793 23.7556 13.0318C23.6552 12.8878 23.5312 12.6702 23.3705 12.7409C23.3373 12.7556 23.3046 12.7804 23.2699 12.812C22.9991 13.078 22.8733 13.581 22.6847 13.9244C22.6459 13.9865 22.5479 14.0424 22.4332 13.9846C22.3684 13.9519 22.323 13.8909 22.2866 13.8282C21.9858 13.3102 22.1812 12.6619 22.139 12.8328C22.1385 12.8345 22.1369 12.8362 22.1351 12.8362ZM20.4149 8.43523C20.4588 8.43192 20.5012 8.446 20.5357 8.47326C20.6827 8.58935 20.7748 8.89399 20.7403 9.04905C20.7374 9.06771 20.7339 9.08656 20.73 9.1054C20.6729 9.38343 20.6202 9.32045 20.5227 9.05388C20.5068 9.00238 20.4569 8.93222 20.4051 8.86268C20.2962 8.71633 20.233 8.44898 20.4149 8.43523Z" fill="white"/>
<path fill-rule="evenodd" clip-rule="evenodd" d="M22.7098 13.0477C22.7437 12.6124 22.6808 12.3512 22.6711 12.0997C22.6614 11.8482 22.3809 9.92322 22.3325 9.72975C22.2728 9.43085 22.4965 9.32775 22.3372 9.06783C22.2288 8.89078 22.1177 8.71482 22.0665 8.58829C21.9822 8.43495 21.8758 8.64172 21.8384 8.81269C21.7922 9.02425 21.7809 9.24255 21.8053 9.4589C22.0905 10.9463 22.3803 12.1862 22.3444 13.5961C22.3434 13.6373 22.3781 13.6703 22.4126 13.6475C22.5318 13.5686 22.6518 13.3087 22.7088 13.0476C22.7089 13.047 22.7098 13.0471 22.7098 13.0477ZM25.7279 9.05042C25.7279 9.04921 25.7291 9.0484 25.7302 9.04897C25.8932 9.13423 25.9842 9.58041 25.9697 9.70557C25.9359 9.94257 25.8488 10.1892 25.7859 10.1602C25.7231 10.1312 25.8005 9.81198 25.7666 9.71524C25.7386 9.5993 25.5851 9.40736 25.5436 9.30057C25.5302 9.26629 25.5263 9.22748 25.5263 9.1907C25.5263 9.07644 25.6417 9.02813 25.7258 9.052C25.7269 9.0523 25.7279 9.05152 25.7279 9.05042ZM13.7474 12.2329C13.7474 12.2317 13.7487 12.2308 13.7498 12.2313C13.9031 12.2965 13.9892 12.6178 13.9747 12.714C13.9457 12.8881 13.8635 13.0719 13.8055 13.0526C13.7765 13.0414 13.7763 12.9862 13.7816 12.9227C13.7927 12.7904 13.7884 12.646 13.7003 12.5466C13.6513 12.4912 13.5954 12.4486 13.5733 12.4121C13.5617 12.3929 13.5596 12.3692 13.5574 12.347C13.5462 12.2325 13.6611 12.2133 13.7452 12.2346C13.7464 12.2349 13.7474 12.234 13.7474 12.2329Z" fill="white"/>
<path fill-rule="evenodd" clip-rule="evenodd" d="M17.4758 12.7297C17.6693 12.7394 17.7709 12.899 17.5871 12.9618C17.4705 13.0017 17.3559 13.0358 17.2876 13.1232C17.1938 13.2434 17.3379 13.5748 17.1866 13.594C17.0411 13.6125 16.9659 13.4958 16.8564 13.3984C16.7284 13.2846 16.585 13.1065 16.5569 12.8313C16.5468 12.6295 16.8545 12.6739 17.0555 12.6939C17.1916 12.7074 17.3372 12.7163 17.471 12.7297H17.4758Z" fill="#1B9D00"/>
<path fill-rule="evenodd" clip-rule="evenodd" d="M9.6266 8.33556C9.6266 8.33433 9.62781 8.33346 9.62898 8.33382C9.85402 8.40315 9.86836 8.7349 9.84909 8.83611C9.82007 9.01507 9.73784 9.2037 9.6798 9.17952C9.61692 9.16017 9.6798 8.91834 9.65078 8.84095C9.6255 8.7615 9.51125 8.63353 9.46504 8.54962C9.4432 8.50997 9.4287 8.45765 9.44044 8.41393C9.45827 8.34752 9.55347 8.31983 9.62431 8.33735C9.62547 8.33764 9.6266 8.33676 9.6266 8.33556ZM14.1199 9.90986C13.9458 10.0066 13.8781 10.2871 13.9845 10.4516C14.086 10.5967 14.2456 10.5435 14.2698 10.5435C14.3914 10.5574 14.4781 10.3841 14.5173 10.2854C14.5344 10.2421 14.5301 10.1829 14.4874 10.2014C14.4728 10.2077 14.4544 10.2185 14.4308 10.2359C14.3734 10.2782 14.2852 10.3393 14.2457 10.2799C14.2295 10.2555 14.2223 10.2292 14.2188 10.2001C14.2096 10.1227 14.2221 10.0439 14.2553 9.97274C14.2843 9.89051 14.2166 9.85182 14.1199 9.90986ZM15.4285 8.20251C15.4267 8.20251 15.4251 8.20302 15.4237 8.20408C15.3406 8.26832 15.1646 8.44605 15.1598 8.65232C15.1598 8.7684 15.1356 8.7684 15.2081 8.84579C15.2662 8.92317 15.3242 8.91834 15.4355 8.8603C15.4632 8.84236 15.4869 8.81894 15.5052 8.79149C15.5235 8.76404 15.536 8.73314 15.5419 8.70069C15.5639 8.59805 15.472 8.6871 15.4177 8.67097C15.3721 8.6574 15.37 8.59027 15.375 8.54294C15.3813 8.48197 15.4225 8.43527 15.4739 8.37745C15.5261 8.31879 15.5976 8.2005 15.524 8.17308C15.5067 8.16663 15.4785 8.17404 15.4326 8.20135C15.4313 8.20208 15.4299 8.20251 15.4285 8.20251ZM16.485 8.39407C16.485 8.39534 16.4849 8.39659 16.4846 8.39782C16.4596 8.49838 16.4404 8.60021 16.427 8.70283C16.4087 8.84247 16.4005 9.08061 16.5304 9.02622C16.5632 9.01247 16.5961 8.98124 16.6205 8.92801C16.6867 8.74667 16.7135 8.627 16.7264 8.5323C16.7417 8.41985 16.7656 8.25419 16.6565 8.223C16.603 8.20772 16.5366 8.26097 16.4861 8.38835C16.4854 8.39015 16.485 8.39213 16.485 8.39407ZM23.1355 11.7742C23.1355 11.775 23.1362 11.7761 23.1368 11.7755C23.1741 11.7404 23.8378 11.2676 24.025 11.1344C24.0576 11.1112 24.1031 11.0931 24.1192 11.1298C24.1245 11.142 24.1286 11.157 24.1317 11.1738C24.1636 11.3467 24.0341 11.5089 23.899 11.6214C23.6662 11.8154 23.4097 11.9798 23.1355 12.1106C23.0874 12.1394 23.0441 11.8622 23.1339 11.7735C23.1345 11.7729 23.1355 11.7733 23.1355 11.7742ZM23.9061 11.7677C23.9524 11.7613 23.9911 11.7805 24.0213 11.8161C24.0704 11.8741 24.1078 11.9713 24.1338 12.0735C24.1961 12.3183 24.2206 12.6068 24.0637 12.8047C24.0241 12.8547 23.983 12.8787 23.9577 12.8651C23.89 12.8361 23.9626 12.5555 23.9335 12.4588C23.9199 12.4021 23.8888 12.3257 23.8583 12.25C23.7905 12.082 23.7266 11.7927 23.9061 11.7677ZM18.5068 13.905C18.485 13.8324 18.5515 13.7697 18.607 13.7182C18.6717 13.6582 18.7506 13.6023 18.7802 13.5831C18.7879 13.5781 18.8038 13.5703 18.8125 13.5674C18.8645 13.5501 18.9494 13.7218 18.9369 13.7751C18.9286 13.8106 18.9237 13.8486 18.9308 13.8915C18.9318 13.8973 18.9335 13.9028 18.9356 13.9082C18.9406 13.921 18.9456 13.9339 18.9521 13.9454C18.9916 14.0153 19.0893 13.953 19.1618 13.9181C19.2315 13.8846 19.3 13.8697 19.3697 13.8614C19.4454 13.8524 19.5414 13.8495 19.5658 13.9217C19.5847 13.9777 19.5686 14.0471 19.5273 14.0501C19.3434 14.0895 19.2308 14.1356 19.117 14.1838C19.0044 14.2315 18.7776 14.3561 18.7776 14.2339C18.7776 14.2304 18.7528 14.2046 18.7512 14.1457C18.7496 14.0879 18.7751 14.0147 18.7466 13.9643C18.7072 13.8946 18.6061 13.9839 18.5371 13.9434C18.5252 13.9365 18.515 13.9242 18.5068 13.905ZM24.9317 14.0549C24.931 14.0549 24.9306 14.0557 24.931 14.0563C24.9681 14.1029 24.9954 14.1497 24.9353 14.2271C24.9318 14.2316 24.9277 14.2357 24.9232 14.2394L24.8693 14.2844C24.7942 14.347 24.6804 14.4495 24.7527 14.5152C24.7636 14.5251 24.7788 14.5332 24.7993 14.5386C24.9259 14.5747 25.1796 14.4405 25.2995 14.3685C25.3419 14.343 25.4064 14.2866 25.4093 14.2372C25.4123 14.1881 25.3776 14.1606 25.3284 14.159C25.2933 14.1579 25.254 14.164 25.2249 14.1613C25.1239 14.1613 25.1815 14.0299 25.2177 13.9355C25.2185 13.9334 25.2193 13.9313 25.2201 13.9292C25.2321 13.9052 25.235 13.8845 25.2275 13.8661C25.1965 13.7902 25.0872 13.7881 25.0053 13.7915C24.9874 13.7923 24.9689 13.7936 24.9479 13.795C24.907 13.7977 24.862 13.7967 24.8301 13.8224C24.8104 13.8384 24.7999 13.8624 24.7914 13.9015C24.7902 13.907 24.7898 13.9127 24.7905 13.9183C24.8026 14.0148 24.8626 14.0126 24.9321 14.0533C24.9328 14.0538 24.9325 14.0549 24.9317 14.0549Z" fill="white"/>
<path fill-rule="evenodd" clip-rule="evenodd" d="M18.5636 11.3945C18.5394 11.4428 18.4524 11.438 18.3701 11.3945C18.2879 11.3509 18.2492 11.2735 18.2734 11.23C18.2976 11.1865 18.3846 11.1865 18.4669 11.23C18.5491 11.2735 18.5878 11.3509 18.5636 11.3945ZM14.3895 8.88905C14.3412 8.90356 14.2783 8.86003 14.2493 8.79232C14.2202 8.7246 14.2348 8.6714 14.2831 8.65689C14.3315 8.64238 14.3944 8.69074 14.4234 8.75362C14.4524 8.8165 14.4379 8.87938 14.3895 8.88905Z" fill="#259F00"/>
<path fill-rule="evenodd" clip-rule="evenodd" d="M22.599 20.1336C22.6181 20.0801 22.6768 20.0786 22.7337 20.0806C23.0749 20.0925 23.4058 20.0864 23.7451 20.0979C23.8681 20.102 24.0096 20.1688 23.9579 20.2805C23.9528 20.2916 23.9467 20.3013 23.9401 20.3087C23.9223 20.3288 23.8912 20.3235 23.8644 20.3228L23.756 20.3199C23.6343 20.3167 23.4823 20.2145 23.3605 20.2185C23.2369 20.2226 23.0894 20.3316 22.9658 20.3272C22.9098 20.3252 22.8542 20.3209 22.7978 20.3164C22.6899 20.3078 22.5626 20.2356 22.599 20.1336Z" fill="#209000"/>
</g>
</g>
<defs>
<filter id="filter0_d_1008_46739" x="0" y="0.504883" width="35.9902" height="35.9902" filterUnits="userSpaceOnUse" color-interpolation-filters="sRGB">
<feFlood flood-opacity="0" result="BackgroundImageFix"/>
<feColorMatrix in="SourceAlpha" type="matrix" values="0 0 0 0 0 0 0 0 0 0 0 0 0 0 0 0 0 0 127 0" result="hardAlpha"/>
<feMorphology radius="2" operator="erode" in="SourceAlpha" result="effect1_dropShadow_1008_46739"/>
<feOffset dy="4"/>
<feGaussianBlur stdDeviation="4"/>
<feColorMatrix type="matrix" values="0 0 0 0 0.0627451 0 0 0 0 0.0941176 0 0 0 0 0.156863 0 0 0 0.1 0"/>
<feBlend mode="normal" in2="BackgroundImageFix" result="effect1_dropShadow_1008_46739"/>
<feBlend mode="normal" in="SourceGraphic" in2="effect1_dropShadow_1008_46739" result="shape"/>
</filter>
</defs>
</svg>
