<svg width="41" height="41" viewBox="0 0 41 41" fill="none" xmlns="http://www.w3.org/2000/svg">
<g clip-path="url(#clip0_1576_3685)">
<path d="M33.5606 28.0992C31.4564 28.2044 28.3263 27.5731 27.432 25.39C22.6448 28.8094 17.9103 28.7305 13.1757 25.2059C11.808 27.5731 9.59853 28.257 6.91562 28.1255C6.91562 27.8625 6.91562 27.6258 6.91562 27.4153C6.91562 23.0753 6.86301 18.7616 6.94192 14.4216C6.96822 11.6335 7.86253 9.0821 9.96677 7.13567C10.677 6.47809 11.5976 6.08355 12.4393 5.53118C12.5971 5.42597 12.8075 5.32076 12.8864 5.13664C13.8333 3.085 15.5693 2.03287 17.6736 1.61203C24.6439 0.244267 31.4038 4.47906 33.1924 11.3705C33.4554 12.3437 33.5869 13.3958 33.5869 14.3953C33.6395 18.8142 33.6132 23.2331 33.6132 27.6521C33.5869 27.7836 33.5606 27.9151 33.5606 28.0992ZM15.9376 10.9496C14.5698 13.0539 14.4909 13.1328 12.3867 14.632C12.2025 14.7636 12.071 15.0003 12.0447 15.2107C11.7291 16.7363 11.808 18.2356 12.2814 19.7085C13.5703 23.7066 17.5947 26.1265 21.8821 25.4689C25.8538 24.8639 28.9839 21.2078 29.0365 17.1308C29.0365 16.6574 28.905 16.5522 28.4578 16.5259C26.2221 16.3943 24.0915 15.842 22.0136 14.974C19.7252 14.0534 17.6999 12.7382 15.9376 10.9496Z" fill="#4BA5B7"/>
<path d="M20.4873 38.1736C22.197 35.7538 23.8541 33.4128 25.5375 31.0718C25.8531 30.651 26.3529 30.3353 26.8263 30.0986C27.1683 29.9408 27.668 29.9671 28.0363 30.0723C30.1142 30.7562 32.2185 31.4664 34.2701 32.2292C35.1118 32.5448 35.6116 33.2287 35.6379 34.1493C35.6642 35.8327 35.6642 37.5161 35.6379 39.1995C35.6116 40.3305 34.7435 41.1985 33.5862 41.33C33.4021 41.3563 33.218 41.3563 33.0075 41.3563C24.6432 41.3563 16.2525 41.3563 7.88812 41.3563C6.09951 41.3563 5.25781 40.5146 5.25781 38.6997C5.25781 37.253 5.25781 35.8327 5.25781 34.386C5.25781 33.255 5.81018 32.5448 6.8623 32.1765C8.75612 31.519 10.6499 30.8351 12.5438 30.2038C13.8063 29.783 14.6217 30.0723 15.3845 31.1244C16.9364 33.3076 18.4883 35.4907 20.0401 37.7002C20.2243 37.8054 20.3295 37.9632 20.4873 38.1736Z" fill="#4BA5B7"/>
</g>
<defs>
<clipPath id="clip0_1576_3685">
<rect width="40" height="40" fill="white" transform="translate(0.128906 0.857422)"/>
</clipPath>
</defs>
</svg>
