<svg width="124" height="124" viewBox="0 0 124 124" fill="none" xmlns="http://www.w3.org/2000/svg">
<g id="left-arrow 1">
<path id="Vector" d="M88.9432 58.8659L97.4269 53.9678C97.6191 53.8572 97.8391 53.8043 98.0605 53.8154C98.282 53.8266 98.4956 53.9013 98.6757 54.0306C98.8558 54.16 98.9948 54.3385 99.0761 54.5448C99.1574 54.7511 99.1775 54.9765 99.1341 55.1939L93.1509 85.2153C93.1185 85.3758 93.0523 85.5275 92.9568 85.6604C92.8612 85.7934 92.7385 85.9045 92.5967 85.9863C92.455 86.0682 92.2974 86.1189 92.1345 86.1352C91.9716 86.1515 91.8071 86.1329 91.652 86.0807L80.4531 82.2606C74.0948 80.1093 67.2878 77.8039 62.691 76.2343C62.4789 76.1634 62.292 76.0323 62.153 75.8571C62.014 75.6819 61.9289 75.4701 61.9081 75.2474C61.8882 75.0276 61.9318 74.8067 62.0337 74.6109C62.1355 74.4152 62.2914 74.2527 62.4828 74.1428L69.7374 69.9544C59.7074 51.2434 36.0451 42.7745 15.456 50.7978C15.1969 50.8992 14.9098 50.9036 14.6477 50.8101C14.3856 50.7166 14.1662 50.5315 14.0298 50.2889C13.8856 50.0428 13.8378 49.7519 13.8955 49.4726C13.9532 49.1932 14.1123 48.9451 14.3422 48.7762C36.806 32.3693 68.715 36.7297 88.9432 58.8659Z" fill="#4FB155"/>
</g>
</svg>
