<svg width="124" height="123" viewBox="0 0 124 123" fill="none" xmlns="http://www.w3.org/2000/svg">
<g id="left-arrow 5">
<path id="Vector" d="M40.3146 45.204L35.4166 36.7203C35.3054 36.5284 35.1414 36.3725 34.944 36.2715C34.7467 36.1704 34.5244 36.1283 34.3037 36.1503C34.083 36.1722 33.8734 36.2573 33.6998 36.3953C33.5263 36.5334 33.3962 36.7185 33.3251 36.9285L23.496 65.9194C23.4438 66.0746 23.4252 66.2391 23.4415 66.4019C23.4578 66.5648 23.5085 66.7224 23.5904 66.8642C23.6722 67.0059 23.7833 67.1287 23.9162 67.2242C24.0492 67.3197 24.2009 67.3859 24.3614 67.4183L35.9699 69.7094C42.5521 71.0255 49.5997 72.4324 54.3655 73.3715C54.5846 73.4162 54.812 73.3961 55.02 73.3139C55.228 73.2317 55.4076 73.0908 55.537 72.9083C55.6641 72.7279 55.7368 72.5148 55.7465 72.2943C55.7561 72.0739 55.7024 71.8552 55.5916 71.6644L51.4031 64.4098C69.4449 53.2206 94.1714 57.7175 107.99 74.9604C108.164 75.1778 108.411 75.3251 108.684 75.3752C108.958 75.4252 109.241 75.3747 109.48 75.2328C109.728 75.0917 109.915 74.8637 110.005 74.593C110.094 74.3222 110.08 74.0278 109.966 73.7666C98.7151 48.3258 68.9009 36.1475 40.3146 45.204Z" fill="#ED2415"/>
</g>
</svg>
