<svg width="41" height="41" viewBox="0 0 41 41" fill="none" xmlns="http://www.w3.org/2000/svg">
<g clip-path="url(#clip0_1576_3672)">
<path d="M36.2414 32.3484C35.4319 29.5198 31.0999 28.2071 27.9369 27.2507C27.0274 26.9757 26.2398 26.7382 25.6522 26.5006H25.6491C25.4247 26.4178 25.2091 26.3131 25.0052 26.1881C24.0082 25.5442 23.9925 23.9283 24.0894 22.9313C25.6834 21.7624 26.9493 19.8996 27.615 17.5898C28.0619 17.6055 28.5214 17.2117 28.934 16.4272C29.3155 15.6689 29.577 14.856 29.7091 14.0174C30.0122 12.0796 29.4153 11.2045 28.712 11.0076C29.1527 7.80392 29.1965 3.14381 25.9897 2.07489C25.9666 2.06637 25.9424 2.06114 25.9178 2.05926C25.3346 2.02254 24.7513 2.12763 24.2176 2.36556C24.1457 1.67795 23.8613 0.596529 22.783 0.402748C21.514 0.171461 13.3377 0.649662 12.0038 5.25977C11.4791 7.12975 11.3178 9.08303 11.5287 11.0138C10.8317 11.2201 10.2472 12.0983 10.5535 14.0174C10.7536 15.2926 11.3412 16.8616 12.0757 17.3961C12.2372 17.5243 12.4382 17.5928 12.6445 17.5898C13.3071 19.9027 14.5761 21.7655 16.1732 22.9344C16.2701 23.9283 16.2513 25.5411 15.2543 26.1881C15.0492 26.3136 14.8325 26.4193 14.6073 26.5037H14.6042C14.0197 26.7382 13.2352 26.9757 12.3288 27.2507C9.1627 28.2071 4.82451 29.5167 4.01501 32.3484C3.43679 34.38 3.08361 37.643 2.88983 40.0184C2.87514 40.1895 3.00196 40.3402 3.17308 40.3548C3.18284 40.3557 3.19261 40.3561 3.20238 40.3559H37.0577C37.1455 40.3569 37.2296 40.3205 37.289 40.2559C37.3468 40.1908 37.3761 40.1053 37.3703 40.0184C37.1759 37.6399 36.8227 34.38 36.2414 32.3484ZM13.1602 17.1116C13.1359 17.0118 13.0632 16.9308 12.9664 16.896C12.8687 16.8617 12.7604 16.8768 12.6758 16.9366C12.6613 16.9488 12.6442 16.9574 12.6257 16.9616C12.5588 16.9595 12.4947 16.934 12.4445 16.8897C11.9413 16.5272 11.3693 15.1926 11.1693 13.9174C10.9849 12.7516 11.163 11.8827 11.6068 11.6514C11.7162 12.4951 11.9035 13.327 12.1663 14.1362C12.2115 14.261 12.3305 14.3437 12.4632 14.3425H13.504C13.6525 14.3425 13.7806 14.238 13.8103 14.0924L14.848 9.03224C16.1482 9.24165 21.1052 9.83861 22.943 6.98504C23.3243 7.75704 24.1182 9.05099 25.334 9.5542L26.4523 14.1049C26.4854 14.2452 26.6113 14.3439 26.7555 14.3425H27.7963C27.9361 14.3421 28.0586 14.2489 28.0963 14.1143C28.1307 13.9861 28.3964 12.9985 28.6152 11.6358C29.0871 11.8483 29.2778 12.7297 29.0902 13.9174C28.9672 14.6887 28.7279 15.4368 28.3807 16.1365C28.0432 16.7772 27.7463 16.9835 27.6275 16.9616C27.6084 16.9552 27.5904 16.9458 27.5744 16.9335C27.4915 16.8745 27.3844 16.8615 27.2899 16.8991C27.1941 16.9335 27.1216 17.013 27.0962 17.1116C26.0835 21.0279 23.2831 23.6595 20.1301 23.6595C16.9771 23.6595 14.1754 21.0279 13.1602 17.1116ZM15.595 26.7132C16.667 26.0193 16.8827 24.6097 16.8295 23.3626C18.8593 24.592 21.4039 24.592 23.4337 23.3626C23.3774 24.6097 23.5931 26.0193 24.6652 26.7132C24.7738 26.7822 24.8866 26.8449 25.0027 26.9007C22.3108 29.5916 17.9479 29.5929 15.2543 26.9038C15.371 26.8465 15.4845 26.7828 15.5943 26.7132H15.595Z" fill="#CE5A28"/>
</g>
<defs>
<clipPath id="clip0_1576_3672">
<rect width="40" height="40" fill="white" transform="translate(0.128906 0.355957)"/>
</clipPath>
</defs>
</svg>
