<svg width="24" height="28" viewBox="0 0 24 28" fill="none" xmlns="http://www.w3.org/2000/svg">
<path opacity="0.4" d="M18.9117 18.748L18.913 18.7502C19.2233 19.2594 19.2776 19.8584 19.0721 20.4037C18.8638 20.9566 18.4356 21.3737 17.8839 21.555L17.8839 21.555L17.8812 21.5559C15.9942 22.1881 14.008 22.5 12.02 22.5C10.032 22.5 8.04662 22.1881 6.16104 21.5466L6.16003 21.5463C5.54298 21.3378 5.10191 20.9172 4.92071 20.4114L4.92073 20.4114L4.91929 20.4075C4.72725 19.8851 4.78762 19.3026 5.11862 18.7475C5.11885 18.7471 5.11908 18.7467 5.11931 18.7463L6.12784 17.0788L6.12789 17.0788L6.13189 17.0719C6.26756 16.8394 6.38153 16.5281 6.46123 16.2349C6.54084 15.9422 6.6 15.6169 6.6 15.35V12.82C6.6 9.83559 9.02669 7.4 12.02 7.4C15.0133 7.4 17.44 9.83559 17.44 12.82V15.35C17.44 15.6169 17.4992 15.9421 17.5786 16.2356C17.6584 16.5303 17.7717 16.8417 17.9052 17.0768L17.905 17.0769L17.9117 17.088L18.9117 18.748Z" fill="#91A5C4" stroke="#91A5C4"/>
<mask id="path-2-inside-1_1_69" fill="white">
<path d="M14.25 7.32C13.56 7.05 12.81 6.9 12.02 6.9C11.24 6.9 10.49 7.04 9.8 7.32C10.23 6.51 11.08 6 12.02 6C12.97 6 13.81 6.51 14.25 7.32Z"/>
</mask>
<path d="M14.25 7.32C13.56 7.05 12.81 6.9 12.02 6.9C11.24 6.9 10.49 7.04 9.8 7.32C10.23 6.51 11.08 6 12.02 6C12.97 6 13.81 6.51 14.25 7.32Z" fill="#91A5C4"/>
<path d="M14.25 7.32L13.8856 8.25124L16.436 9.24922L15.1287 6.84267L14.25 7.32ZM9.8 7.32L8.91674 6.85111L7.62675 9.2811L10.176 8.24661L9.8 7.32ZM14.6144 6.38876C13.8115 6.07456 12.9381 5.9 12.02 5.9V7.9C12.6819 7.9 13.3085 8.02544 13.8856 8.25124L14.6144 6.38876ZM12.02 5.9C11.1199 5.9 10.2413 6.06171 9.42398 6.39339L10.176 8.24661C10.7387 8.01829 11.3601 7.9 12.02 7.9V5.9ZM10.6833 7.78889C10.937 7.31096 11.444 7 12.02 7V5C10.716 5 9.52303 5.70904 8.91674 6.85111L10.6833 7.78889ZM12.02 7C12.602 7 13.1055 7.30814 13.3713 7.79733L15.1287 6.84267C14.5145 5.71186 13.338 5 12.02 5V7Z" fill="#91A5C4" mask="url(#path-2-inside-1_1_69)"/>
<path d="M10.0956 24.6143C10.146 24.6193 10.1966 24.6239 10.2474 24.6282C10.8289 24.6792 11.4233 24.71 12.02 24.71C12.6073 24.71 13.1924 24.6791 13.7645 24.628L13.7645 24.628L13.7674 24.6277C13.8104 24.6237 13.858 24.6197 13.9086 24.6156C13.4474 25.1572 12.7621 25.5 12 25.5C11.3411 25.5 10.6924 25.2319 10.2398 24.7628L10.2311 24.7538L10.222 24.7452C10.1782 24.7042 10.136 24.6604 10.0956 24.6143Z" fill="#91A5C4" stroke="#91A5C4"/>
<rect x="20" width="4" height="4" rx="2" fill="#D92D20"/>
</svg>
