<svg width="124" height="124" viewBox="0 0 124 124" fill="none" xmlns="http://www.w3.org/2000/svg">
<g id="left-arrow 6">
<path id="Vector" d="M35.0568 58.8659L26.5731 53.9678C26.3809 53.8572 26.1609 53.8043 25.9395 53.8154C25.718 53.8266 25.5044 53.9013 25.3243 54.0306C25.1442 54.16 25.0052 54.3385 24.9239 54.5448C24.8426 54.7511 24.8225 54.9765 24.8659 55.1939L30.8491 85.2153C30.8815 85.3758 30.9477 85.5275 31.0432 85.6604C31.1388 85.7934 31.2615 85.9045 31.4033 85.9863C31.545 86.0682 31.7026 86.1189 31.8655 86.1352C32.0284 86.1515 32.1929 86.1329 32.348 86.0807L43.5469 82.2606C49.9052 80.1093 56.7122 77.8039 61.309 76.2343C61.5211 76.1634 61.708 76.0323 61.847 75.8571C61.986 75.6819 62.0711 75.4701 62.0919 75.2474C62.1118 75.0276 62.0682 74.8067 61.9663 74.6109C61.8645 74.4152 61.7086 74.2527 61.5172 74.1428L54.2626 69.9544C64.2926 51.2434 87.9549 42.7745 108.544 50.7978C108.803 50.8992 109.09 50.9036 109.352 50.8101C109.614 50.7166 109.834 50.5315 109.97 50.2889C110.114 50.0428 110.162 49.7519 110.105 49.4726C110.047 49.1932 109.888 48.9451 109.658 48.7762C87.194 32.3693 55.285 36.7297 35.0568 58.8659Z" fill="#4FB155"/>
</g>
</svg>
