<svg width="124" height="123" viewBox="0 0 124 123" fill="none" xmlns="http://www.w3.org/2000/svg">
<g id="left-arrow 7">
<path id="Vector" d="M83.6852 45.204L88.5833 36.7203C88.6944 36.5284 88.8584 36.3725 89.0558 36.2715C89.2532 36.1704 89.4755 36.1283 89.6961 36.1503C89.9168 36.1722 90.1264 36.2573 90.3 36.3953C90.4735 36.5334 90.6036 36.7185 90.6747 36.9285L100.504 65.9194C100.556 66.0746 100.575 66.2391 100.558 66.4019C100.542 66.5648 100.491 66.7224 100.409 66.8642C100.328 67.0059 100.217 67.1287 100.084 67.2242C99.9506 67.3197 99.7989 67.3859 99.6384 67.4183L88.0299 69.7094C81.4478 71.0255 74.4001 72.4324 69.6343 73.3715C69.4152 73.4162 69.1878 73.3961 68.9798 73.3139C68.7718 73.2317 68.5922 73.0908 68.4628 72.9083C68.3357 72.7279 68.263 72.5148 68.2534 72.2943C68.2437 72.0739 68.2974 71.8552 68.4083 71.6644L72.5967 64.4098C54.5549 53.2206 29.8284 57.7175 16.0094 74.9604C15.8357 75.1778 15.5892 75.3251 15.3155 75.3752C15.0418 75.4252 14.7591 75.3747 14.5197 75.2328C14.2718 75.0917 14.085 74.8637 13.9953 74.593C13.9056 74.3222 13.9193 74.0278 14.0339 73.7666C25.2847 48.3258 55.099 36.1475 83.6852 45.204Z" fill="#ED2415"/>
</g>
</svg>
