<svg width="24" height="28" viewBox="0 0 24 28" fill="none" xmlns="http://www.w3.org/2000/svg">
<path d="M17.5 24.75C17.5 25.4404 16.9404 26 16.25 26C15.5596 26 15 25.4404 15 24.75C15 24.0596 15.5596 23.5 16.25 23.5C16.9404 23.5 17.5 24.0596 17.5 24.75Z" fill="#91A5C4" stroke="#91A5C4"/>
<path d="M9.5 24.75C9.5 25.4404 8.94036 26 8.25 26C7.55964 26 7 25.4404 7 24.75C7 24.0596 7.55964 23.5 8.25 23.5C8.94036 23.5 9.5 24.0596 9.5 24.75Z" fill="#91A5C4" stroke="#91A5C4"/>
<path opacity="0.4" d="M5.33834 7.98068L5.33841 7.98069L5.33896 7.97219C5.36732 7.53253 5.22483 7.09756 4.91925 6.76287L4.91934 6.76279L4.91168 6.75477C4.61094 6.43971 4.19178 6.25 3.74001 6.25H2C1.86614 6.25 1.75 6.13386 1.75 6C1.75 5.86614 1.86614 5.75 2 5.75H3.77C4.34685 5.75 4.91269 5.99881 5.30922 6.42551C5.55579 6.70535 5.71941 7.04554 5.80243 7.41081L5.89088 7.8H6.28999H18.56C20.0416 7.8 21.1599 8.9953 21.0513 10.4734L21.0513 10.4744C21.0403 10.6281 20.9123 10.75 20.75 10.75H5.44C5.25356 10.75 5.12382 10.6014 5.1382 10.4324L5.13834 10.4307L5.33834 7.98068Z" fill="#91A5C4" stroke="#91A5C4"/>
<path d="M20.8019 13.5567L20.8018 13.5567L20.8012 13.5648L20.4713 18.2334C20.4713 18.2336 20.4713 18.2339 20.4713 18.2341C20.38 19.4737 19.2766 20.5 18.04 20.5H6.92C5.5051 20.5 4.39218 19.2825 4.50829 17.8712C4.50829 17.8712 4.5083 17.8711 4.50831 17.871L4.86792 13.5257C4.88484 13.3665 5.01501 13.25 5.17 13.25H20.51C20.6924 13.25 20.816 13.3944 20.8019 13.5567Z" fill="#91A5C4" stroke="#91A5C4"/>
<rect x="20" width="4" height="4" rx="2" fill="#D92D20"/>
</svg>
