<svg width="33" height="33" viewBox="0 0 33 33" fill="none" xmlns="http://www.w3.org/2000/svg">
<path d="M25.5624 3.17219C18.3995 -2.0599 8.35082 -0.513159 3.10907 6.63657C-2.1406 13.7863 -0.583087 23.8085 6.57986 29.0485C13.7428 34.2727 23.7994 32.7339 29.0332 25.5762C34.275 18.4423 32.7175 8.40427 25.5624 3.17219Z" fill="white"/>
<g style="mix-blend-mode:multiply">
<mask id="mask0_1481_8181" style="mask-type:luminance" maskUnits="userSpaceOnUse" x="0" y="0" width="28" height="32">
<path d="M27.0014 0.44165H0.365723V31.3212H27.0014V0.44165Z" fill="white"/>
</mask>
<g mask="url(#mask0_1481_8181)">
<mask id="mask1_1481_8181" style="mask-type:luminance" maskUnits="userSpaceOnUse" x="0" y="0" width="28" height="32">
<path d="M19.4194 14.757C19.372 8.77521 9.94791 9.32762 11.118 4.64005C11.9482 1.26247 19.5064 -0.623603 27.0093 4.86101C26.4875 4.36384 25.9499 3.89035 25.349 3.46421C18.3521 -1.6495 8.53272 -0.142219 3.40955 6.84968C-1.72152 13.8337 -0.195632 23.635 6.80128 28.7566C8.50901 29.9955 10.3828 30.8399 12.3198 31.3213C12.1458 30.6584 12.0668 29.964 12.1142 29.238C12.6123 22.4355 19.4827 21.4727 19.4194 14.7491" fill="white"/>
</mask>
<g mask="url(#mask1_1481_8181)">
<path d="M8.30055 -15.3103L-17.4667 19.8184L16.9805 44.9926L42.7477 9.86398L8.30055 -15.3103Z" fill="url(#paint0_linear_1481_8181)"/>
</g>
</g>
</g>
<g style="mix-blend-mode:multiply">
<mask id="mask2_1481_8181" style="mask-type:luminance" maskUnits="userSpaceOnUse" x="6" y="3" width="26" height="29">
<path d="M31.7767 3.55103H6.96729V31.7869H31.7767V3.55103Z" fill="white"/>
</mask>
<g mask="url(#mask2_1481_8181)">
<mask id="mask3_1481_8181" style="mask-type:luminance" maskUnits="userSpaceOnUse" x="6" y="3" width="26" height="29">
<path d="M28.2269 6.18643C34.0458 16.2797 26.954 23.1611 24.6217 18.15C22.1708 12.8785 24.3845 6.32059 18.953 4.13464C9.70284 0.401942 1.47257 15.238 11.6636 31.1631C17.8303 32.9624 24.7324 30.8475 28.7487 25.3786C33.0733 19.4837 32.6622 11.5921 28.2269 6.19433" fill="white"/>
</mask>
<g mask="url(#mask3_1481_8181)">
<path d="M34.0457 0.402344H1.47253V32.9628H34.0457V0.402344Z" fill="url(#paint1_radial_1481_8181)"/>
</g>
</g>
</g>
<g style="mix-blend-mode:multiply">
<mask id="mask4_1481_8181" style="mask-type:luminance" maskUnits="userSpaceOnUse" x="3" y="13" width="28" height="19">
<path d="M30.148 13.8494H3.73364V31.7947H30.148V13.8494Z" fill="white"/>
</mask>
<g mask="url(#mask4_1481_8181)">
<mask id="mask5_1481_8181" style="mask-type:luminance" maskUnits="userSpaceOnUse" x="3" y="13" width="28" height="19">
<path d="M23.665 24.945C18.5102 23.8401 14.9287 11.0795 7.52068 14.4019C2.85607 16.4852 3.12488 22.4118 5.02235 27.2414C5.55996 27.7859 6.16083 28.2989 6.80123 28.7645C13.7981 33.8782 23.6255 32.363 28.7486 25.379C29.2862 24.6293 29.7527 23.8559 30.1559 23.051C28.2426 24.3768 25.9261 25.4263 23.665 24.945Z" fill="white"/>
</mask>
<g mask="url(#mask5_1481_8181)">
<path d="M12.3747 -1.90218L-8.0354 25.9231L20.6196 46.8643L41.0297 19.0391L12.3747 -1.90218Z" fill="url(#paint2_linear_1481_8181)"/>
</g>
</g>
</g>
<defs>
<linearGradient id="paint0_linear_1481_8181" x1="23.3844" y1="0.757172" x2="4.87772" y2="26.0808" gradientUnits="userSpaceOnUse">
<stop stop-color="#00A1E4"/>
<stop offset="1" stop-color="#F49800"/>
</linearGradient>
<radialGradient id="paint1_radial_1481_8181" cx="0" cy="0" r="1" gradientUnits="userSpaceOnUse" gradientTransform="translate(17.7716 17.3842) scale(13.306 13.2814)">
<stop stop-color="#C5D8E3"/>
<stop offset="0.12" stop-color="#BFD5E1"/>
<stop offset="0.26" stop-color="#B1CFDB"/>
<stop offset="0.42" stop-color="#99C4D1"/>
<stop offset="0.58" stop-color="#77B6C4"/>
<stop offset="0.75" stop-color="#4CA3B3"/>
<stop offset="0.93" stop-color="#188C9E"/>
<stop offset="1" stop-color="#008295"/>
</radialGradient>
<linearGradient id="paint2_linear_1481_8181" x1="21.797" y1="15.4573" x2="13.126" y2="27.3222" gradientUnits="userSpaceOnUse">
<stop stop-color="#00A1E4"/>
<stop offset="1" stop-color="#F59C00"/>
</linearGradient>
</defs>
</svg>
