<svg width="223" height="34" viewBox="0 0 223 34" fill="none" xmlns="http://www.w3.org/2000/svg">
<path d="M6.3249 25.0001C2.09512 25.0001 0 23.2797 0 20.2889C0 16.2089 3.94515 15.0331 8.6572 14.5754V13.7389C8.6572 11.7344 7.39222 11.182 5.57381 11.182C4.07956 11.182 2.64064 11.6713 1.69191 12.1369C1.69191 12.1369 1.59704 8.94873 6.21421 8.94873C9.40828 8.94873 11.9382 10.2982 11.9382 14.2913V23.8795C10.7049 24.5424 8.74417 25.0001 6.3249 25.0001ZM8.6572 16.2405C5.35244 16.643 3.30476 17.3611 3.30476 20.1784C3.30476 22.1907 4.51439 23.0509 6.55417 23.0509C7.3606 23.0509 8.1354 22.8773 8.64929 22.6169V16.2405H8.6572Z" fill="#4BA5B7"/>
<path d="M41.3648 25.0001C37.135 25.0001 35.032 23.2797 35.032 20.2889C35.032 16.2089 38.9771 15.0331 43.6971 14.5754V13.7389C43.6971 11.7344 42.4321 11.182 40.6216 11.182C39.1274 11.182 37.6884 11.6713 36.7397 12.1369C36.7397 12.1369 36.6448 8.94873 41.2541 8.94873C44.4482 8.94873 46.9781 10.2982 46.9781 14.2913V23.8795C45.7448 24.5424 43.7841 25.0001 41.3727 25.0001M43.705 16.2405C40.4002 16.643 38.3526 17.3611 38.3526 20.1784C38.3526 22.1907 39.5622 23.0509 41.6099 23.0509C42.4163 23.0509 43.1911 22.8773 43.705 22.6169V16.2405Z" fill="#4BA5B7"/>
<path d="M81.4963 25.0001C77.2665 25.0001 75.1635 23.2797 75.1635 20.2889C75.1635 16.2089 79.1007 15.0331 83.8207 14.5754V13.7389C83.8207 11.7344 82.5557 11.182 80.7373 11.182C79.243 11.182 77.8041 11.6713 76.8554 12.1369C76.8554 12.1369 76.7605 8.94873 81.3698 8.94873C84.5638 8.94873 87.0938 10.2982 87.0938 14.2913V23.8795C85.8604 24.5424 83.8997 25.0001 81.4883 25.0001M83.8207 16.2405C80.5159 16.643 78.4682 17.3611 78.4682 20.1784C78.4682 22.1907 79.6778 23.0509 81.7176 23.0509C82.5241 23.0509 83.2988 22.8773 83.8207 22.6169V16.2405Z" fill="#4BA5B7"/>
<path d="M27.3868 9.03542C25.9162 9.03542 25.0861 9.31952 24.335 9.66675V7.94639C24.335 5.08966 20.8563 4.47412 20.8563 4.47412V23.8873C21.8367 24.5186 23.5918 25.0079 25.9795 25.0079C30.8101 25.0079 33.4903 21.8197 33.4903 16.6192C33.4903 11.9948 30.992 9.03542 27.3947 9.03542M26.1297 22.8456C25.4656 22.8456 24.8094 22.7272 24.3429 22.5299V11.5291C24.9201 11.2135 25.4972 11.0714 26.446 11.0714C29.0945 11.0714 30.0116 13.6046 30.0116 16.8165C30.0116 20.4939 28.8889 22.8456 26.1297 22.8456Z" fill="#4BA5B7"/>
<path d="M14.658 4.46631V24.7081H18.1367V7.93858C18.1367 5.08185 14.658 4.46631 14.658 4.46631Z" fill="#4BA5B7"/>
<path d="M57.4617 11.474V9.23279H54.9001V7.93858C54.9001 5.08185 51.4214 4.46631 51.4214 4.46631V9.23279H49.6979V11.474H51.4214V20.6913C51.4214 22.8457 52.631 24.8817 55.6749 24.8817C56.5129 24.8817 57.1454 24.7081 57.4617 24.566V22.388C57.1692 22.4748 56.9399 22.53 56.6236 22.53C55.414 22.53 54.9001 21.7251 54.9001 20.5177V11.474H57.4617Z" fill="#4BA5B7"/>
<path d="M67.1388 9.0591C65.9607 9.0591 64.8381 9.31952 63.6601 9.8956V7.94639C63.6601 5.08966 60.1735 4.47412 60.1735 4.47412V24.7159H63.6601V11.8527C64.4349 11.395 65.2097 11.2214 66.1663 11.2214C68.2693 11.2214 68.9018 12.4525 68.9018 13.8335V24.7159H72.4121V13.7467C72.4121 11.3634 71.0602 9.06699 67.1467 9.06699" fill="#4BA5B7"/>
<path d="M219.521 6.30493V24.708H223V10.0613C223 7.18878 219.521 6.30493 219.521 6.30493ZM211.718 6.30493V20.7859C211.718 21.9775 211.236 22.7824 210.034 22.7824H205.211C205.567 22.1196 205.725 21.3541 205.725 20.5649V13.4626C205.725 10.5821 202.246 9.70618 202.246 9.70618V20.7938C202.246 21.9854 201.756 22.7903 200.562 22.7903H193.747C195.107 21.4251 195.827 19.3733 195.827 16.6981C195.827 11.1661 192.506 9.50889 188.94 9.50889C185.881 9.50889 182.948 11.395 181.232 13.5257V9.65094C181.232 7.30716 177.785 6.32072 177.785 6.32072V22.7903H172.812C171.302 22.7903 170.503 21.575 170.503 20.5649V14.7173C170.503 10.7558 167.997 9.42209 164.827 9.42209C160.407 9.42209 160.352 12.5787 160.352 12.5787C161.293 12.121 162.716 11.6396 164.202 11.6396C165.997 11.6396 167.254 12.1841 167.254 14.1728V20.4466C167.254 21.3146 167.412 22.3326 168.116 22.7824H153.956V10.0692C153.956 7.19668 150.469 6.31282 150.469 6.31282V24.7159H210.975C214.003 24.7159 215.197 22.6956 215.197 20.557V10.0613C215.197 7.18878 211.71 6.30493 211.71 6.30493M188.513 22.7746H181.224V17.6845C181.224 15.8221 184.9 11.5133 188.83 11.5133C191.455 11.5133 192.364 13.6914 192.364 16.8796C192.364 20.5255 191.249 22.7746 188.513 22.7746ZM201.812 25.9627C200.847 25.9627 200.072 26.744 200.072 27.6989C200.072 28.6537 200.847 29.435 201.812 29.435C202.776 29.435 203.559 28.6537 203.559 27.6989C203.559 26.744 202.776 25.9627 201.812 25.9627ZM139.14 16.6744C139.14 13.7782 140.46 11.6238 142.792 11.6238C145.125 11.6238 146.247 12.5629 146.247 12.5629C146.247 12.5629 146.192 9.4063 142.587 9.4063C138.721 9.4063 135.882 12.3104 135.882 16.8243C135.882 19.7048 136.989 21.654 138.231 22.7746H135.882V24.708H147.75V22.7746H145.338C139.021 22.7746 139.132 16.6744 139.132 16.6744" fill="#4BA5B7"/>
<path d="M121.027 4.06379C113.864 -1.1683 103.815 0.378442 98.5735 7.52817C93.3239 14.6779 94.8814 24.7001 102.044 29.9401C109.207 35.1643 119.264 33.6255 124.498 26.4678C129.739 19.3339 128.182 9.29587 121.027 4.06379Z" fill="white"/>
<g style="mix-blend-mode:multiply">
<mask id="mask0_1481_7838" style="mask-type:luminance" maskUnits="userSpaceOnUse" x="95" y="1" width="28" height="32">
<path d="M122.466 1.33325H95.8301V32.2128H122.466V1.33325Z" fill="white"/>
</mask>
<g mask="url(#mask0_1481_7838)">
<mask id="mask1_1481_7838" style="mask-type:luminance" maskUnits="userSpaceOnUse" x="95" y="1" width="28" height="32">
<path d="M114.884 15.6486C114.836 9.66681 105.412 10.2192 106.582 5.53165C107.413 2.15408 114.971 0.267999 122.474 5.75261C121.952 5.25545 121.414 4.78196 120.813 4.35581C113.816 -0.757899 103.997 0.749383 98.8739 7.74128C93.7428 14.7253 95.2687 24.5266 102.266 29.6482C103.973 30.8871 105.847 31.7315 107.784 32.2129C107.61 31.55 107.531 30.8556 107.579 30.1296C108.077 23.3271 114.947 22.3643 114.884 15.6407" fill="white"/>
</mask>
<g mask="url(#mask1_1481_7838)">
<path d="M103.765 -14.4186L77.9977 20.71L112.445 45.8842L138.212 10.7556L103.765 -14.4186Z" fill="url(#paint0_linear_1481_7838)"/>
</g>
</g>
</g>
<g style="mix-blend-mode:multiply">
<mask id="mask2_1481_7838" style="mask-type:luminance" maskUnits="userSpaceOnUse" x="102" y="4" width="26" height="29">
<path d="M127.241 4.44263H102.432V32.6785H127.241V4.44263Z" fill="white"/>
</mask>
<g mask="url(#mask2_1481_7838)">
<mask id="mask3_1481_7838" style="mask-type:luminance" maskUnits="userSpaceOnUse" x="102" y="4" width="26" height="29">
<path d="M123.691 7.07804C129.51 17.1713 122.418 24.0527 120.086 19.0416C117.635 13.7701 119.849 7.21219 114.417 5.02624C105.167 1.29354 96.9369 16.1296 107.128 32.0547C113.295 33.854 120.197 31.7391 124.213 26.2702C128.538 20.3753 128.127 12.4837 123.691 7.08593" fill="white"/>
</mask>
<g mask="url(#mask3_1481_7838)">
<path d="M129.51 1.29395H96.9369V33.8544H129.51V1.29395Z" fill="url(#paint1_radial_1481_7838)"/>
</g>
</g>
</g>
<g style="mix-blend-mode:multiply">
<mask id="mask4_1481_7838" style="mask-type:luminance" maskUnits="userSpaceOnUse" x="99" y="14" width="27" height="19">
<path d="M125.612 14.741H99.1981V32.6863H125.612V14.741Z" fill="white"/>
</mask>
<g mask="url(#mask4_1481_7838)">
<mask id="mask5_1481_7838" style="mask-type:luminance" maskUnits="userSpaceOnUse" x="99" y="14" width="27" height="19">
<path d="M119.129 25.8366C113.975 24.7317 110.393 11.9711 102.985 15.2935C98.3205 17.3768 98.5894 23.3034 100.487 28.133C101.024 28.6775 101.625 29.1905 102.266 29.6561C109.263 34.7698 119.09 33.2546 124.213 26.2706C124.751 25.5209 125.217 24.7475 125.62 23.9426C123.707 25.2684 121.391 26.3179 119.129 25.8366Z" fill="white"/>
</mask>
<g mask="url(#mask5_1481_7838)">
<path d="M107.839 -1.01058L87.4291 26.8147L116.084 47.7559L136.494 19.9307L107.839 -1.01058Z" fill="url(#paint2_linear_1481_7838)"/>
</g>
</g>
</g>
<defs>
<linearGradient id="paint0_linear_1481_7838" x1="118.849" y1="1.64877" x2="100.342" y2="26.9724" gradientUnits="userSpaceOnUse">
<stop stop-color="#00A1E4"/>
<stop offset="1" stop-color="#F49800"/>
</linearGradient>
<radialGradient id="paint1_radial_1481_7838" cx="0" cy="0" r="1" gradientUnits="userSpaceOnUse" gradientTransform="translate(113.236 18.2758) scale(13.306 13.2814)">
<stop stop-color="#C5D8E3"/>
<stop offset="0.12" stop-color="#BFD5E1"/>
<stop offset="0.26" stop-color="#B1CFDB"/>
<stop offset="0.42" stop-color="#99C4D1"/>
<stop offset="0.58" stop-color="#77B6C4"/>
<stop offset="0.75" stop-color="#4CA3B3"/>
<stop offset="0.93" stop-color="#188C9E"/>
<stop offset="1" stop-color="#008295"/>
</radialGradient>
<linearGradient id="paint2_linear_1481_7838" x1="117.261" y1="16.3489" x2="108.59" y2="28.2138" gradientUnits="userSpaceOnUse">
<stop stop-color="#00A1E4"/>
<stop offset="1" stop-color="#F59C00"/>
</linearGradient>
</defs>
</svg>
