<svg width="1250" height="1262" viewBox="0 0 1250 1262" fill="none" xmlns="http://www.w3.org/2000/svg">
<g filter="url(#filter0_f_9_2901)">
<circle cx="631.5" cy="630.833" r="363.154" fill="url(#paint0_angular_9_2901)" fill-opacity="0.46"/>
</g>
<path d="M814.623 381.144C676.491 280.248 482.711 310.075 381.629 447.952C280.393 585.828 310.429 779.098 448.56 880.147C586.691 980.891 780.624 951.215 881.554 813.187C982.637 675.615 952.602 482.04 814.623 381.144Z" fill="white"/>
<g filter="url(#filter1_f_9_2901)">
<circle cx="631.2" cy="630.607" r="274.796" transform="rotate(3.86586 631.2 630.607)" fill="url(#paint1_angular_9_2901)"/>
</g>
<g style="mix-blend-mode:multiply">
<mask id="mask0_9_2901" style="mask-type:luminance" maskUnits="userSpaceOnUse" x="321" y="321" width="526" height="610">
<path d="M846.851 321.592L321.919 321.592L321.919 930.161L846.851 930.161L846.851 321.592Z" fill="white"/>
</mask>
<g mask="url(#mask0_9_2901)">
<mask id="mask1_9_2901" style="mask-type:luminance" maskUnits="userSpaceOnUse" x="322" y="321" width="526" height="610">
<path d="M697.424 603.716C696.489 485.828 510.761 496.715 533.821 404.333C550.181 337.768 699.138 300.598 847.004 408.688C836.72 398.89 826.125 389.558 814.283 381.16C676.389 280.38 482.87 310.085 381.904 447.88C280.781 585.52 310.853 778.682 448.747 879.617C482.403 904.035 519.33 920.676 557.504 930.163C554.076 917.099 552.518 903.413 553.453 889.104C563.269 755.042 698.67 736.068 697.424 603.56" fill="white"/>
</mask>
<g mask="url(#mask1_9_2901)">
<path d="M478.304 11.1586L-29.5117 703.467L649.368 1199.6L1157.18 507.288L478.304 11.1586Z" fill="url(#paint2_linear_9_2901)"/>
</g>
</g>
</g>
<g style="mix-blend-mode:multiply">
<mask id="mask2_9_2901" style="mask-type:luminance" maskUnits="userSpaceOnUse" x="452" y="382" width="489" height="558">
<path d="M940.959 382.868L452.02 382.868L452.02 939.336L940.959 939.336L940.959 382.868Z" fill="white"/>
</mask>
<g mask="url(#mask2_9_2901)">
<mask id="mask3_9_2901" style="mask-type:luminance" maskUnits="userSpaceOnUse" x="452" y="382" width="490" height="558">
<path d="M871.005 434.808C985.683 633.724 845.919 769.342 799.954 670.584C751.652 566.693 795.28 437.452 688.237 394.371C505.936 320.808 343.735 613.195 544.578 927.044C666.111 962.504 802.136 920.823 881.288 813.045C966.518 696.868 958.416 541.343 871.005 434.963" fill="white"/>
</mask>
<g mask="url(#mask3_9_2901)">
<path d="M985.691 320.816L343.743 320.816L343.743 962.511L985.691 962.511L985.691 320.816Z" fill="url(#paint3_radial_9_2901)"/>
</g>
</g>
</g>
<g style="mix-blend-mode:multiply">
<mask id="mask4_9_2901" style="mask-type:luminance" maskUnits="userSpaceOnUse" x="388" y="585" width="521" height="355">
<path d="M908.866 585.828L388.297 585.828L388.297 939.492L908.866 939.492L908.866 585.828Z" fill="white"/>
</mask>
<g mask="url(#mask4_9_2901)">
<mask id="mask5_9_2901" style="mask-type:luminance" maskUnits="userSpaceOnUse" x="388" y="585" width="522" height="355">
<path d="M781.101 804.498C679.512 782.724 608.929 531.24 462.932 596.716C371.003 637.775 376.301 754.574 413.696 849.755C424.291 860.487 436.133 870.596 448.754 879.772C586.648 980.552 780.322 950.691 881.289 813.052C891.884 798.277 901.077 783.035 909.024 767.172C871.317 793.3 825.664 813.985 781.101 804.498Z" fill="white"/>
</mask>
<g mask="url(#mask5_9_2901)">
<path d="M558.605 275.398L156.365 823.773L721.092 1236.48L1123.33 688.104L558.605 275.398Z" fill="url(#paint4_linear_9_2901)"/>
</g>
</g>
</g>
<mask id="path-13-inside-1_9_2901" fill="white">
<path d="M694.012 607.445C700.891 492.056 518.476 490.428 547.142 401.577C567.548 337.539 715.727 311.023 853.237 426.54C843.824 416.275 834.076 406.446 823.046 397.447C694.809 289.74 503.528 306.007 395.645 434.135C287.62 562.101 304.269 753.056 432.496 860.916C463.807 887.028 498.832 905.749 535.55 917.554C533.061 904.547 532.441 891.055 534.302 877.119C552.767 746.616 686.482 737.005 694.022 607.293"/>
<path d="M882.453 455.605C981.491 657.783 835.796 781.216 797.359 681.564C756.974 576.736 808.197 453.185 706.327 403.964C532.848 319.947 354.84 595.262 530.574 915.573C647.124 958.297 782.95 926.514 867.509 826.308C958.568 718.288 960.923 565.605 882.442 455.757"/>
<path d="M768.632 811.171C670.687 783.155 618.262 532.466 471.108 586.869C378.46 620.958 375.922 735.571 406.212 831.158C415.868 842.356 426.785 853.029 438.525 862.84C566.762 970.548 758.205 954.139 866.078 826.162C877.42 812.409 887.421 798.106 896.244 783.112C857.629 806.18 811.599 823.398 768.632 811.171Z"/>
</mask>
<path d="M547.142 401.577L548.029 401.863L548.03 401.86L547.142 401.577ZM853.237 426.54L852.637 427.254L853.924 425.91L853.237 426.54ZM823.046 397.447L822.447 398.161L822.457 398.169L823.046 397.447ZM395.645 434.135L396.357 434.736L396.358 434.735L395.645 434.135ZM432.496 860.916L431.896 861.629L431.899 861.632L432.496 860.916ZM535.55 917.554L535.265 918.441L536.761 918.922L536.466 917.378L535.55 917.554ZM534.302 877.119L533.379 876.988L533.378 876.996L534.302 877.119ZM797.359 681.564L796.489 681.899L796.489 681.899L797.359 681.564ZM706.327 403.964L705.92 404.803L705.921 404.803L706.327 403.964ZM530.574 915.573L529.756 916.022L529.925 916.328L530.253 916.448L530.574 915.573ZM867.509 826.308L868.221 826.909L868.221 826.909L867.509 826.308ZM768.632 811.171L768.375 812.067L768.377 812.068L768.632 811.171ZM471.108 586.869L471.429 587.743L471.431 587.743L471.108 586.869ZM406.212 831.158L405.324 831.439L405.382 831.622L405.506 831.767L406.212 831.158ZM438.525 862.84L439.124 862.126L439.122 862.125L438.525 862.84ZM866.078 826.162L866.791 826.763L866.797 826.755L866.078 826.162ZM896.244 783.112L897.047 783.585L895.766 782.312L896.244 783.112ZM694.942 607.501C698.419 549.187 653.987 519.659 612.904 493.77C592.275 480.772 572.513 468.709 559.658 454.379C553.248 447.233 548.592 439.56 546.408 430.97C544.226 422.388 544.493 412.824 548.029 401.863L546.255 401.29C542.625 412.542 542.322 422.465 544.601 431.43C546.879 440.386 551.718 448.319 558.27 455.623C571.341 470.194 591.377 482.409 611.91 495.348C653.147 521.333 696.484 550.314 693.082 607.39L694.942 607.501ZM548.03 401.86C553.035 386.153 565.907 372.655 584.666 363.046C603.42 353.439 628.003 347.754 656.279 347.657C712.822 347.464 784.035 369.623 852.637 427.254L853.836 425.827C784.929 367.94 713.297 345.598 656.272 345.793C627.764 345.891 602.881 351.621 583.816 361.387C564.755 371.151 551.452 384.982 546.254 401.294L548.03 401.86ZM853.924 425.91C844.496 415.629 834.713 405.763 823.636 396.725L822.457 398.169C833.438 407.129 843.153 416.922 852.55 427.17L853.924 425.91ZM823.646 396.733C695.016 288.696 503.148 305.012 394.932 433.535L396.358 434.735C503.909 307.002 694.602 290.783 822.447 398.161L823.646 396.733ZM394.933 433.534C286.574 561.895 303.277 753.439 431.896 861.629L433.096 860.203C305.262 752.674 288.666 562.307 396.357 434.736L394.933 433.534ZM431.899 861.632C463.305 887.823 498.437 906.601 535.265 918.441L535.836 916.666C499.227 904.897 464.309 886.233 433.093 860.2L431.899 861.632ZM536.466 917.378C533.993 904.462 533.379 891.071 535.225 877.242L533.378 876.996C531.503 891.039 532.128 904.632 534.635 917.729L536.466 917.378ZM535.224 877.249C544.407 812.356 582.206 777.53 618.902 742.585C655.585 707.651 691.16 672.598 694.953 607.347L693.092 607.239C689.345 671.701 654.292 706.309 617.616 741.235C580.953 776.149 542.662 811.379 533.379 876.988L535.224 877.249ZM881.616 456.015C931.026 556.882 919.306 637.922 890.681 681.257C876.351 702.951 857.868 715.098 840.76 715.799C823.753 716.495 807.738 705.884 798.228 681.228L796.489 681.899C806.198 707.07 822.809 718.399 840.836 717.661C858.76 716.927 877.718 704.264 892.237 682.285C921.309 638.272 932.917 556.506 883.29 455.195L881.616 456.015ZM798.228 681.229C788.177 655.138 783.816 627.858 781.351 600.802C780.119 587.274 779.361 573.814 778.599 560.587C777.838 547.367 777.073 534.378 775.827 521.82C773.336 496.71 768.912 473.24 758.68 452.943C748.434 432.618 732.385 415.52 706.732 403.125L705.921 404.803C731.204 417.019 746.953 433.823 757.016 453.783C767.092 473.771 771.488 496.969 773.972 522.004C775.214 534.517 775.977 547.469 776.738 560.695C777.499 573.914 778.259 587.406 779.495 600.971C781.967 628.102 786.348 655.576 796.489 681.899L798.228 681.229ZM706.733 403.125C663.103 381.995 619.147 383.451 580.552 402.579C541.98 421.696 508.823 458.43 486.645 507.763C442.285 606.44 441.775 755.656 529.756 916.022L531.391 915.125C443.639 755.179 444.266 606.582 488.346 508.528C510.388 459.496 543.277 423.134 581.38 404.25C619.461 385.376 662.811 383.925 705.92 404.803L706.733 403.125ZM530.253 916.448C647.159 959.303 783.401 927.424 868.221 826.909L866.796 825.707C782.499 925.603 647.089 957.292 530.894 914.698L530.253 916.448ZM868.221 826.909C959.562 718.555 961.922 565.4 883.201 455.215L881.684 456.299C959.923 565.809 957.573 718.021 866.796 825.707L868.221 826.909ZM768.888 810.275C744.707 803.358 723.223 782.652 702.249 756.077C691.775 742.806 681.459 728.114 671.018 713.014C660.583 697.921 650.02 682.418 639.074 667.56C617.19 637.857 593.69 610.616 566.383 594.226C539.019 577.801 507.857 572.289 470.784 585.994L471.431 587.743C507.935 574.247 538.509 579.669 565.423 595.824C592.394 612.013 615.713 638.995 637.573 668.665C648.498 683.494 659.039 698.966 669.485 714.074C679.926 729.175 690.271 743.91 700.785 757.231C721.786 783.84 743.584 804.976 768.375 812.067L768.888 810.275ZM470.786 585.994C424.081 603.179 400.116 640.68 391.642 685.78C383.175 730.844 390.15 783.557 405.324 831.439L407.101 830.876C391.984 783.172 385.083 730.786 393.474 686.124C401.859 641.499 425.487 604.648 471.429 587.743L470.786 585.994ZM405.506 831.767C415.197 843.006 426.15 853.714 437.927 863.555L439.122 862.125C427.419 852.344 416.539 841.707 406.918 830.549L405.506 831.767ZM437.925 863.554C566.556 971.591 758.586 955.133 866.791 826.763L865.366 825.562C757.824 953.144 566.968 969.504 439.124 862.126L437.925 863.554ZM866.797 826.755C878.17 812.964 888.199 798.621 897.047 783.585L895.44 782.64C886.643 797.591 876.67 811.853 865.359 825.569L866.797 826.755ZM895.766 782.312C857.206 805.347 811.469 822.392 768.887 810.275L768.377 812.068C811.73 824.404 858.051 807.014 896.722 783.912L895.766 782.312Z" fill="url(#paint5_linear_9_2901)" mask="url(#path-13-inside-1_9_2901)"/>
<defs>
<filter id="filter0_f_9_2901" x="0.842377" y="0.175262" width="1261.32" height="1261.32" filterUnits="userSpaceOnUse" color-interpolation-filters="sRGB">
<feFlood flood-opacity="0" result="BackgroundImageFix"/>
<feBlend mode="normal" in="SourceGraphic" in2="BackgroundImageFix" result="shape"/>
<feGaussianBlur stdDeviation="133.752" result="effect1_foregroundBlur_9_2901"/>
</filter>
<filter id="filter1_f_9_2901" x="88.8902" y="88.2975" width="1084.62" height="1084.62" filterUnits="userSpaceOnUse" color-interpolation-filters="sRGB">
<feFlood flood-opacity="0" result="BackgroundImageFix"/>
<feBlend mode="normal" in="SourceGraphic" in2="BackgroundImageFix" result="shape"/>
<feGaussianBlur stdDeviation="133.752" result="effect1_foregroundBlur_9_2901"/>
</filter>
<radialGradient id="paint0_angular_9_2901" cx="0" cy="0" r="1" gradientUnits="userSpaceOnUse" gradientTransform="translate(631.5 630.833) rotate(90) scale(363.154)">
<stop offset="0.097326" stop-color="#EB5E00"/>
<stop offset="0.185496" stop-color="#E09914"/>
<stop offset="0.306958" stop-color="#9D9C53"/>
<stop offset="0.449567" stop-color="#4A9FA0"/>
<stop offset="0.623161" stop-color="white"/>
<stop offset="0.750472" stop-color="#1F8FA1"/>
<stop offset="0.844943" stop-color="#055768"/>
<stop offset="0.930404" stop-color="#155926"/>
<stop offset="0.997684" stop-color="#0D5401"/>
</radialGradient>
<radialGradient id="paint1_angular_9_2901" cx="0" cy="0" r="1" gradientUnits="userSpaceOnUse" gradientTransform="translate(631.2 630.607) rotate(90) scale(274.796)">
<stop offset="0.097326" stop-color="#EB5E00"/>
<stop offset="0.185496" stop-color="#E09914"/>
<stop offset="0.306958" stop-color="#9D9C53"/>
<stop offset="0.449567" stop-color="#4A9FA0"/>
<stop offset="0.623161" stop-color="white"/>
<stop offset="0.750472" stop-color="#1F8FA1"/>
<stop offset="0.844943" stop-color="#055768"/>
<stop offset="0.930404" stop-color="#155926"/>
<stop offset="0.997684" stop-color="#0D5401"/>
</radialGradient>
<linearGradient id="paint2_linear_9_2901" x1="775.575" y1="327.813" x2="410.848" y2="826.887" gradientUnits="userSpaceOnUse">
<stop stop-color="#00A1E4"/>
<stop offset="1" stop-color="#F49800"/>
</linearGradient>
<radialGradient id="paint3_radial_9_2901" cx="0" cy="0" r="1" gradientUnits="userSpaceOnUse" gradientTransform="translate(664.963 655.491) scale(262.232 261.748)">
<stop stop-color="#C5D8E3"/>
<stop offset="0.12" stop-color="#BFD5E1"/>
<stop offset="0.26" stop-color="#B1CFDB"/>
<stop offset="0.42" stop-color="#99C4D1"/>
<stop offset="0.58" stop-color="#77B6C4"/>
<stop offset="0.75" stop-color="#4CA3B3"/>
<stop offset="0.93" stop-color="#188C9E"/>
<stop offset="1" stop-color="#008295"/>
</radialGradient>
<linearGradient id="paint4_linear_9_2901" x1="744.296" y1="617.515" x2="573.411" y2="851.346" gradientUnits="userSpaceOnUse">
<stop stop-color="#00A1E4"/>
<stop offset="1" stop-color="#F59C00"/>
</linearGradient>
<linearGradient id="paint5_linear_9_2901" x1="653.247" y1="308.904" x2="611.063" y2="933.162" gradientUnits="userSpaceOnUse">
<stop stop-color="white" stop-opacity="0"/>
<stop offset="0.520118" stop-color="white"/>
<stop offset="1" stop-color="white" stop-opacity="0"/>
</linearGradient>
</defs>
</svg>
