<svg width="19" height="18" viewBox="0 0 19 18" fill="none" xmlns="http://www.w3.org/2000/svg">
<path d="M13.25 16.5H5.75C2.75 16.5 2 15.75 2 12.75V11.25C2 8.25 2.75 7.5 5.75 7.5H13.25C16.25 7.5 17 8.25 17 11.25V12.75C17 15.75 16.25 16.5 13.25 16.5Z" stroke="#9CA3AF" stroke-width="1.5" stroke-linecap="round" stroke-linejoin="round"/>
<path d="M5 7.5V6C5 3.5175 5.75 1.5 9.5 1.5C12.875 1.5 14 3 14 5.25" stroke="#9CA3AF" stroke-width="1.5" stroke-linecap="round" stroke-linejoin="round"/>
<path d="M9.5 13.875C10.5355 13.875 11.375 13.0355 11.375 12C11.375 10.9645 10.5355 10.125 9.5 10.125C8.46447 10.125 7.625 10.9645 7.625 12C7.625 13.0355 8.46447 13.875 9.5 13.875Z" stroke="#9CA3AF" stroke-width="1.5" stroke-linecap="round" stroke-linejoin="round"/>
</svg>
