<svg width="154" height="54" viewBox="0 0 154 54" fill="none" xmlns="http://www.w3.org/2000/svg">
<path d="M23.4894 52.0637C20.8383 52.0637 20.7138 49.8752 20.7138 49.8752C21.2831 50.1955 22.1727 50.4624 23.0979 50.4624C24.7704 50.4624 25.3931 49.555 25.3931 48.2205V47.5978C25.0017 47.8113 24.379 47.9714 23.525 47.9714C21.1408 47.9714 19.5039 46.1211 19.5039 43.0964C19.5039 39.8582 21.123 37.7053 24.3434 37.7053C25.8024 37.7053 26.9589 38.0256 27.5816 38.417V48.007C27.5816 50.6759 25.9625 52.0459 23.4894 52.0459M25.3931 39.2532C25.0907 39.0931 24.717 39.0397 24.2189 39.0397C22.4574 39.0397 21.7457 40.4809 21.7457 42.9896C21.7457 45.4983 22.4396 46.6548 24.1121 46.6548C24.6281 46.6548 25.0729 46.5303 25.3931 46.3346V39.2532Z" fill="white"/>
<path d="M88.1458 52.0637C85.4948 52.0637 85.3702 49.8753 85.3702 49.8753C85.9396 50.1955 86.8292 50.4624 87.7544 50.4624C89.4269 50.4624 90.0496 49.555 90.0496 48.2206V47.5979C89.6582 47.8114 89.0354 47.9715 88.1814 47.9715C85.7973 47.9715 84.1604 46.1211 84.1604 43.0964C84.1604 39.8582 85.7795 37.7054 88.9999 37.7054C90.4588 37.7054 91.6153 38.0256 92.238 38.4171V48.0071C92.238 50.6759 90.6367 52.0459 88.1458 52.0459M90.0496 39.2533C89.7471 39.0932 89.3735 39.0398 88.8931 39.0398C87.1317 39.0398 86.4022 40.481 86.4022 42.9897C86.4022 45.4984 87.1139 46.6549 88.7686 46.6549C89.2845 46.6549 89.7293 46.5303 90.0496 46.3346V39.2533Z" fill="white"/>
<path d="M30.8001 36.1753C30.124 36.1753 29.5547 35.6771 29.5547 35.0722C29.5547 34.4672 30.1062 33.9335 30.8001 33.9335C31.494 33.9335 32.0456 34.4317 32.0456 35.0722C32.0456 35.7127 31.5118 36.1753 30.8001 36.1753ZM29.6614 37.9011H31.9211V47.8826H29.6614V37.9011Z" fill="white"/>
<path d="M15.9444 47.8824V40.8011C15.9444 39.9826 15.5708 39.1286 14.1474 39.1286C13.4001 39.1286 13.0265 39.2354 12.5995 39.4133V47.8824H10.3398V38.4347C11.2828 37.9899 12.5639 37.723 14.2541 37.723C17.2432 37.723 18.2218 39.1642 18.2218 40.7833V47.9002H15.9622L15.9444 47.8824Z" fill="white"/>
<path d="M39.6261 47.8826V40.8013C39.6261 39.9828 39.2524 39.1288 37.8291 39.1288C37.0818 39.1288 36.6904 39.2355 36.2633 39.4135V47.8826H34.0037V38.4349C34.9467 37.9901 36.2278 37.7232 37.918 37.7232C40.9071 37.7232 41.8857 39.1644 41.8857 40.7835V47.9004H39.6261V47.8826Z" fill="white"/>
<path d="M71.349 36.1753C70.6729 36.1753 70.1035 35.6771 70.1035 35.0722C70.1035 34.4672 70.6551 33.9335 71.349 33.9335C72.0429 33.9335 72.5944 34.4317 72.5944 35.0722C72.5944 35.7127 72.0607 36.1753 71.349 36.1753ZM70.2281 37.9011H72.4877V47.8826H70.2281V37.9011Z" fill="white"/>
<path d="M80.1028 47.8825V40.8012C80.1028 39.9828 79.7292 39.1287 78.3058 39.1287C77.5585 39.1287 77.1849 39.2355 76.7401 39.4134V47.8825H74.4805V38.4348C75.4235 37.99 76.7045 37.7231 78.3948 37.7231C81.3661 37.7231 82.3624 39.1643 82.3624 40.7834V47.9003H80.1028V47.8825Z" fill="white"/>
<path d="M2.70719 43.7192C2.88512 45.5696 3.77473 46.4948 5.42941 46.4948C6.5859 46.4948 7.42214 46.2101 7.95591 45.9432C7.95591 45.9432 7.88474 48.0783 5.19811 48.0783C2.36914 48.0783 0.572124 46.2457 0.572124 42.8652C0.572124 39.4846 2.2268 37.7232 4.82447 37.7232C7.42214 37.7232 8.91669 39.4846 8.82773 42.8296L2.70719 43.7192ZM4.7533 39.111C3.43668 39.111 2.52927 40.1963 2.58265 42.5805L6.71045 41.9578C6.71045 39.9294 5.98097 39.111 4.7533 39.111Z" fill="white"/>
<path d="M55.3716 43.719C55.5495 45.5694 56.4391 46.4946 58.0938 46.4946C59.2325 46.4946 60.0688 46.2099 60.6025 45.943C60.6025 45.943 60.5314 48.0781 57.8447 48.0781C55.0158 48.0781 53.2188 46.2455 53.2188 42.865C53.2188 39.4845 54.8734 37.723 57.4711 37.723C60.0688 37.723 61.5633 39.4845 61.4744 42.8294L55.3716 43.719ZM57.4177 39.1108C56.1011 39.1108 55.1937 40.1961 55.2471 42.5803L59.3749 41.9576C59.3749 39.9293 58.6454 39.1108 57.4177 39.1108Z" fill="white"/>
<path d="M45.8011 43.7191C45.979 45.5695 46.8686 46.4947 48.5233 46.4947C49.6798 46.4947 50.516 46.2101 51.0498 45.9432C51.0498 45.9432 50.9786 48.0782 48.292 48.0782C45.463 48.0782 43.666 46.2456 43.666 42.8651C43.666 39.4846 45.3207 37.7231 47.9184 37.7231C50.516 37.7231 52.0106 39.4846 51.9216 42.8295L45.8011 43.7191ZM47.8472 39.1109C46.5306 39.1109 45.6232 40.1963 45.6765 42.5804L49.8043 41.9577C49.8043 39.9294 49.0749 39.1109 47.8472 39.1109Z" fill="white"/>
<path d="M67.0619 37.723C64.998 37.723 63.3789 38.5948 63.3789 41.1747V47.9002H65.4962V40.8189C65.4962 39.52 66.3146 39.1642 67.4711 39.1642C67.9871 39.1642 68.4853 39.2532 68.9301 39.3777C68.9301 39.3777 68.681 37.723 67.0619 37.723Z" fill="white"/>
<path d="M7.22662 27.0478C2.77855 27.0478 0.554523 25.233 0.554523 22.0838C0.554523 17.7781 4.70012 16.5326 9.68195 16.0522V15.1804C9.68195 13.0631 8.34753 12.476 6.44376 12.476C4.86025 12.476 3.34791 12.992 2.35154 13.4723C2.35154 13.4723 2.24479 10.1096 7.10207 10.1096C10.4648 10.1096 13.1336 11.533 13.1336 15.7498V25.8735C11.8348 26.5674 9.77091 27.0478 7.22662 27.0478ZM9.68195 17.7959C6.19466 18.2229 4.0418 18.9879 4.0418 21.9415C4.0418 24.0587 5.32285 24.9661 7.47571 24.9661C8.32973 24.9661 9.14818 24.7882 9.68195 24.5213V17.7959Z" fill="white"/>
<path d="M44.1291 27.048C39.6811 27.048 37.457 25.2332 37.457 22.0839C37.457 17.7782 41.6026 16.5327 46.5845 16.0524V15.1805C46.5845 13.0633 45.25 12.4761 43.3463 12.4761C41.7628 12.4761 40.2504 12.9921 39.254 13.4725C39.254 13.4725 39.1473 10.1097 44.0046 10.1097C47.3673 10.1097 50.0361 11.5331 50.0361 15.7499V25.8737C48.7373 26.5676 46.6734 27.048 44.1291 27.048ZM46.5845 17.796C43.0972 18.223 40.9443 18.9881 40.9443 21.9416C40.9443 24.0589 42.2076 24.9663 44.3782 24.9663C45.2322 24.9663 46.0507 24.7883 46.5845 24.5215V17.796Z" fill="white"/>
<path d="M86.4024 27.0478C81.9543 27.0478 79.7303 25.233 79.7303 22.0838C79.7303 17.7781 83.8759 16.5326 88.8577 16.0522V15.1804C88.8577 13.0631 87.5233 12.476 85.6195 12.476C84.036 12.476 82.5237 12.992 81.5273 13.4723C81.5273 13.4723 81.4383 10.1096 86.2956 10.1096C89.6584 10.1096 92.3272 11.533 92.3272 15.7498V25.8735C91.0284 26.5674 88.9645 27.0478 86.4202 27.0478M88.8755 17.7959C85.3882 18.2229 83.2354 18.9879 83.2354 21.9415C83.2354 24.0587 84.5164 24.9661 86.6693 24.9661C87.5233 24.9661 88.3417 24.7882 88.8755 24.5213V17.7959Z" fill="white"/>
<path d="M29.4128 10.1985C27.8649 10.1985 26.9931 10.501 26.1924 10.8746V9.05981C26.1924 6.03513 22.5272 5.39461 22.5272 5.39461V25.8735C23.5592 26.5318 25.4095 27.0478 27.9183 27.0478C33.0068 27.0478 35.8358 23.685 35.8358 18.205C35.8358 13.3299 33.2026 10.1985 29.4128 10.1985ZM28.0784 24.7704C27.3845 24.7704 26.6906 24.6458 26.1924 24.4323V12.8318C26.7973 12.4937 27.4023 12.3514 28.4164 12.3514C31.2098 12.3514 32.1706 15.0202 32.1706 18.4185C32.1706 22.2972 30.9963 24.7882 28.0784 24.7882" fill="white"/>
<path d="M15.9961 5.37683L15.9961 26.7453H19.6613V9.04203C19.6613 6.01735 15.9961 5.37683 15.9961 5.37683Z" fill="white"/>
<path d="M61.0829 12.7784V10.412H58.3784V9.04203C58.3784 6.01735 54.7132 5.37683 54.7132 5.37683V10.412H52.8984V12.7784H54.7132V22.5108C54.7132 24.7882 55.9943 26.941 59.1969 26.941C60.0687 26.941 60.7448 26.7631 61.0829 26.603V24.3078C60.7804 24.3967 60.5491 24.4501 60.211 24.4501C58.9478 24.4501 58.3962 23.5961 58.3962 22.3328V12.7784H61.1007H61.0829Z" fill="white"/>
<path d="M71.2796 10.2344C70.0342 10.2344 68.8599 10.5013 67.6144 11.124V9.06014C67.6144 6.03546 63.9492 5.39494 63.9492 5.39494V26.7634H67.6144V13.1879C68.4329 12.7076 69.2513 12.5118 70.2477 12.5118C72.4539 12.5118 73.13 13.8107 73.13 15.2696V26.7634H76.8308V15.1807C76.8308 12.672 75.4074 10.2522 71.2796 10.2522" fill="white"/>
<path d="M142.395 5.25267C130.563 -3.39436 113.963 -0.832277 105.298 10.9818C96.6334 22.8136 99.1955 39.4138 111.027 48.0786C122.859 56.7434 139.459 54.1636 148.124 42.3495C156.789 30.5177 154.209 13.9175 142.377 5.25267" fill="white"/>
<path d="M141.973 5.8059C130.418 -2.63438 114.208 -0.139218 105.752 11.3946C97.2832 22.9283 99.7957 39.096 111.351 47.549C122.906 55.9765 139.129 53.4941 147.572 41.9476C156.028 30.4393 153.515 14.2462 141.973 5.8059Z" fill="white"/>
<g style="mix-blend-mode:multiply">
<mask id="mask0_1_537" style="mask-type:luminance" maskUnits="userSpaceOnUse" x="101" y="1" width="44" height="51">
<path d="M144.289 1.39257L101.332 1.39258L101.332 51.194L144.289 51.194L144.289 1.39257Z" fill="white"/>
</mask>
<g mask="url(#mask0_1_537)">
<mask id="mask1_1_537" style="mask-type:luminance" maskUnits="userSpaceOnUse" x="101" y="1" width="44" height="51">
<path d="M132.073 24.479C131.997 14.8318 116.798 15.7227 118.685 8.16273C120.024 2.7155 132.213 -0.326293 144.314 8.51909C143.472 7.71728 142.605 6.95365 141.636 6.26638C130.352 -1.98082 114.515 0.450067 106.253 11.7263C97.9776 22.9899 100.439 38.797 111.723 47.057C114.477 49.0551 117.499 50.4169 120.623 51.1933C120.342 50.1242 120.215 49.0042 120.291 47.8333C121.095 36.8625 132.175 35.3098 132.073 24.4662" fill="white"/>
</mask>
<g mask="url(#mask1_1_537)">
<path d="M114.133 -24.0111L72.5762 32.643L128.131 73.2431L169.688 16.5889L114.133 -24.0111Z" fill="url(#paint0_linear_1_537)"/>
</g>
</g>
</g>
<g style="mix-blend-mode:multiply">
<mask id="mask2_1_537" style="mask-type:luminance" maskUnits="userSpaceOnUse" x="111" y="6" width="41" height="46">
<path d="M151.982 6.40722L111.971 6.40723L111.971 51.945L151.982 51.945L151.982 6.40722Z" fill="white"/>
</mask>
<g mask="url(#mask2_1_537)">
<mask id="mask3_1_537" style="mask-type:luminance" maskUnits="userSpaceOnUse" x="111" y="6" width="41" height="46">
<path d="M146.252 10.6586C155.636 26.9366 144.199 38.0347 140.438 29.953C136.485 21.4512 140.055 10.8749 131.295 7.3495C116.377 1.32955 103.103 25.2566 119.539 50.9401C129.485 53.8419 140.616 50.431 147.093 41.6111C154.068 32.1039 153.405 19.3767 146.252 10.6713" fill="white"/>
</mask>
<g mask="url(#mask3_1_537)">
<path d="M155.642 1.32997L103.109 1.32998L103.109 53.8423L155.642 53.8423L155.642 1.32997Z" fill="url(#paint1_radial_1_537)"/>
</g>
</g>
</g>
<g style="mix-blend-mode:multiply">
<mask id="mask4_1_537" style="mask-type:luminance" maskUnits="userSpaceOnUse" x="106" y="23" width="44" height="29">
<path d="M149.364 23.0156L106.764 23.0156L106.764 51.9572L149.364 51.9572L149.364 23.0156Z" fill="white"/>
</mask>
<g mask="url(#mask4_1_537)">
<mask id="mask5_1_537" style="mask-type:luminance" maskUnits="userSpaceOnUse" x="106" y="23" width="44" height="29">
<path d="M138.902 40.9115C130.588 39.1297 124.812 18.5499 112.865 23.908C105.342 27.268 105.776 36.8261 108.836 44.6151C109.703 45.4933 110.672 46.3206 111.705 47.0715C122.989 55.3187 138.838 52.8751 147.101 41.6115C147.968 40.4024 148.72 39.1552 149.37 37.857C146.285 39.9952 142.549 41.6879 138.902 40.9115Z" fill="white"/>
</mask>
<g mask="url(#mask5_1_537)">
<path d="M120.692 -2.38724L87.7756 42.4883L133.989 76.2616L166.906 31.386L120.692 -2.38724Z" fill="url(#paint2_linear_1_537)"/>
</g>
</g>
</g>
<defs>
<linearGradient id="paint0_linear_1_537" x1="138.459" y1="1.90181" x2="108.612" y2="42.7429" gradientUnits="userSpaceOnUse">
<stop stop-color="#00A1E4"/>
<stop offset="1" stop-color="#F49800"/>
</linearGradient>
<radialGradient id="paint1_radial_1_537" cx="0" cy="0" r="1" gradientUnits="userSpaceOnUse" gradientTransform="translate(129.396 28.7177) scale(21.4594 21.4198)">
<stop stop-color="#C5D8E3"/>
<stop offset="0.12" stop-color="#BFD5E1"/>
<stop offset="0.26" stop-color="#B1CFDB"/>
<stop offset="0.42" stop-color="#99C4D1"/>
<stop offset="0.58" stop-color="#77B6C4"/>
<stop offset="0.75" stop-color="#4CA3B3"/>
<stop offset="0.93" stop-color="#188C9E"/>
<stop offset="1" stop-color="#008295"/>
</radialGradient>
<linearGradient id="paint2_linear_1_537" x1="135.888" y1="25.6094" x2="121.904" y2="44.7447" gradientUnits="userSpaceOnUse">
<stop stop-color="#00A1E4"/>
<stop offset="1" stop-color="#F59C00"/>
</linearGradient>
</defs>
</svg>
