<svg width="212" height="55" viewBox="0 0 212 55" fill="none" xmlns="http://www.w3.org/2000/svg">
<path d="M6.79377 42.716C6.95825 44.3608 7.74411 45.2015 9.22446 45.2015C10.2479 45.2015 10.9972 44.9457 11.4724 44.7081C11.4724 44.7081 11.4176 46.6088 9.00515 46.6088C6.48308 46.6088 4.8748 44.9639 4.8748 41.9667C4.8748 38.9695 6.35515 37.3795 8.67618 37.3795C10.9972 37.3795 12.3314 38.9512 12.24 41.9484L6.77549 42.7526L6.79377 42.716ZM8.60308 38.6039C7.43342 38.6039 6.62928 39.5543 6.66584 41.6926L10.3576 41.126C10.3576 39.3167 9.7179 38.6039 8.60308 38.6039Z" fill="white"/>
<path d="M3.02794 37.361C1.20035 37.361 -0.261719 38.1286 -0.261719 40.4313V46.4258H1.62069V40.1206C1.62069 38.9693 2.35173 38.6403 3.39345 38.6403C3.85035 38.6403 4.30725 38.7134 4.70932 38.8413C4.70932 38.8413 4.49001 37.361 3.04621 37.361" fill="white"/>
<path d="M60.9433 27.7112C56.3561 27.7112 54.0898 25.8471 54.0898 22.594C54.0898 18.1712 58.3664 16.8919 63.4654 16.3985V15.4847C63.4654 13.3098 62.0947 12.7067 60.1392 12.7067C58.5126 12.7067 56.9592 13.2367 55.9357 13.7302C55.9357 13.7302 55.8261 10.2761 60.8336 10.2761C64.2878 10.2761 67.0292 11.7381 67.0292 16.0695V26.4867C65.695 27.1995 63.575 27.7112 60.9433 27.7112ZM63.4654 18.2078C59.8833 18.6464 57.6719 19.4323 57.6719 22.4843C57.6719 24.6592 58.9878 25.6095 61.1992 25.6095C62.0764 25.6095 62.9171 25.4267 63.4654 25.1526V18.2261V18.2078Z" fill="white"/>
<path d="M98.9023 27.7112C94.315 27.7112 92.0488 25.8471 92.0488 22.594C92.0488 18.1712 96.3254 16.8919 101.424 16.3985V15.4847C101.424 13.3098 100.054 12.7067 98.0981 12.7067C96.4716 12.7067 94.9181 13.2367 93.8947 13.7302C93.8947 13.7302 93.785 10.2761 98.7926 10.2761C102.247 10.2761 105.006 11.7381 105.006 16.0695V26.4867C103.672 27.1995 101.552 27.7112 98.9206 27.7112M101.443 18.2078C97.8606 18.6464 95.6492 19.4323 95.6492 22.4843C95.6492 24.6592 96.965 25.6095 99.1764 25.6095C100.054 25.6095 100.894 25.4267 101.443 25.1526V18.2261V18.2078Z" fill="white"/>
<path d="M142.4 27.7112C137.813 27.7112 135.547 25.8471 135.547 22.594C135.547 18.1712 139.823 16.8919 144.941 16.3985V15.4847C144.941 13.3098 143.57 12.7067 141.596 12.7067C139.97 12.7067 138.416 13.2367 137.393 13.7302C137.393 13.7302 137.283 10.2761 142.291 10.2761C145.745 10.2761 148.504 11.7381 148.504 16.0695V26.4867C147.17 27.1995 145.05 27.7112 142.419 27.7112M144.941 18.2078C141.359 18.6464 139.147 19.4323 139.147 22.4843C139.147 24.6592 140.445 25.6095 142.674 25.6095C143.552 25.6095 144.392 25.4267 144.959 25.1526V18.2261L144.941 18.2078Z" fill="white"/>
<path d="M83.7525 10.3858C82.1625 10.3858 81.2669 10.6965 80.4445 11.0803V9.21617C80.4445 6.10927 76.6797 5.45134 76.6797 5.45134V26.5234C77.7397 27.2179 79.6404 27.7479 82.2356 27.7479C87.4807 27.7479 90.3683 24.2938 90.3683 18.6465C90.3683 13.6207 87.6452 10.4224 83.7525 10.4224M82.3818 25.4269C81.669 25.4269 80.938 25.2989 80.4445 25.0796V13.1272C81.0659 12.78 81.6873 12.6338 82.729 12.6338C85.5983 12.6338 86.5852 15.3751 86.5852 18.8658C86.5852 22.8682 85.379 25.4086 82.3818 25.4086" fill="white"/>
<path d="M69.9551 5.43328V27.4191H73.7382V9.21638C73.7382 6.10948 69.9551 5.43328 69.9551 5.43328Z" fill="white"/>
<path d="M116.358 13.0356V10.6049H113.58V9.19766C113.58 6.09077 109.816 5.43284 109.816 5.43284V10.6049H107.951V13.0356H109.816V23.0508C109.816 25.3901 111.131 27.6015 114.439 27.6015C115.335 27.6015 116.029 27.4187 116.377 27.2542V24.8784C116.066 24.9697 115.81 25.0428 115.481 25.0428C114.165 25.0428 113.599 24.1656 113.599 22.8497V13.0356H116.377H116.358Z" fill="white"/>
<path d="M126.847 10.4041C125.568 10.4041 124.361 10.6782 123.064 11.2996V9.17961C123.064 6.07271 119.299 5.41478 119.299 5.41478V27.4006H123.064V13.4379C123.904 12.9444 124.745 12.7434 125.787 12.7434C128.053 12.7434 128.748 14.0958 128.748 15.5762V27.4006H132.549V15.4848C132.549 12.9079 131.087 10.4041 126.847 10.4041Z" fill="white"/>
<path d="M77.5562 46.426V40.1026C77.5562 39.3167 77.1176 38.6588 76.0576 38.6588C75.4362 38.6588 74.9793 38.8598 74.5589 39.2619V46.4443H72.5486V40.066C72.5486 39.207 71.9638 38.6405 70.8855 38.6405C70.3007 38.6405 69.9534 38.7136 69.5514 38.8964V46.4443H67.541V38.0191C68.4365 37.5805 69.3869 37.3795 70.8855 37.3795C72.3841 37.3795 73.1517 37.7998 73.6634 38.3664C74.2483 37.8181 75.1621 37.3795 76.5145 37.3795C78.6345 37.3795 79.5848 38.6953 79.5848 40.1026V46.4626H77.5745L77.5562 46.426Z" fill="white"/>
<path d="M62.7725 46.5905C60.2687 46.5905 59.0625 44.5985 59.0625 41.985C59.0625 39.3716 60.2687 37.3429 62.7725 37.3429C65.2763 37.3429 66.4825 39.3167 66.4825 41.985C66.4825 44.6533 65.2763 46.5905 62.7725 46.5905ZM62.7725 38.6223C61.347 38.6223 61.0728 40.2671 61.0728 41.9667C61.0728 43.6664 61.3835 45.2198 62.7725 45.2198C64.1615 45.2198 64.4722 43.6481 64.4722 41.9667C64.4722 40.2854 64.198 38.6223 62.7725 38.6223Z" fill="white"/>
<path d="M54.9673 37.4155C54.291 37.4155 53.6514 37.5617 52.9752 37.8907V36.7576C52.9752 35.1128 50.9648 34.7472 50.9648 34.7472V46.4072H52.9752V39.0055C53.4138 38.7497 53.8707 38.64 54.419 38.64C55.6252 38.64 55.9907 39.3528 55.9907 40.1386V46.4072H58.0193V40.0838C58.0193 38.7131 57.2335 37.379 54.9855 37.379" fill="white"/>
<path d="M82.5459 42.7156C82.7104 44.3605 83.4963 45.2011 84.9766 45.2011C86.0001 45.2011 86.7494 44.9453 87.2245 44.7077C87.2245 44.7077 87.1697 46.6084 84.7573 46.6084C82.217 46.6084 80.627 44.9636 80.627 41.9663C80.627 38.9691 82.1073 37.3791 84.4283 37.3791C86.7494 37.3791 88.0835 38.9508 88.0104 41.948L82.5459 42.7522V42.7156ZM84.3552 38.6036C83.1856 38.6036 82.3632 39.5539 82.418 41.6922L86.1097 41.1256C86.1097 39.3163 85.4701 38.6036 84.3552 38.6036Z" fill="white"/>
<path d="M22.9689 46.5903C20.5382 46.5903 19.332 45.6034 19.332 43.8855C19.332 41.5462 21.5982 40.8517 24.3031 40.5958V40.1207C24.3031 38.9693 23.572 38.6586 22.5303 38.6586C21.6713 38.6586 20.8489 38.9327 20.3007 39.2069C20.3007 39.2069 20.2458 37.361 22.8958 37.361C24.7234 37.361 26.1855 38.1286 26.1855 40.4314V45.9507C25.4727 46.3345 24.3396 46.5903 22.9507 46.5903M24.2848 41.5462C22.3841 41.7838 21.2144 42.1858 21.2144 43.8124C21.2144 44.9638 21.9089 45.4572 23.0786 45.4572C23.5355 45.4572 23.9924 45.3658 24.2848 45.2014V41.5279V41.5462Z" fill="white"/>
<path d="M28.9996 35.9722C28.3965 35.9722 27.8848 35.5153 27.8848 34.9853C27.8848 34.4553 28.3782 33.9802 28.9996 33.9802C29.621 33.9802 30.0961 34.437 30.0961 34.9853C30.0961 35.5336 29.621 35.9722 28.9996 35.9722ZM27.9944 37.5074H30.0048V46.426H27.9944V37.5074Z" fill="white"/>
<path d="M31.793 34.7658V46.4258H33.785V36.7761C33.785 35.1313 31.793 34.7658 31.793 34.7658Z" fill="white"/>
<path d="M17.6117 38.8048V37.5254H16.1313V36.7761C16.1313 35.1313 14.1392 34.7658 14.1392 34.7658V37.5072H13.1523V38.7865H14.1392V44.0865C14.1392 45.3292 14.8337 46.4989 16.5882 46.4989C17.0634 46.4989 17.4289 46.3892 17.6117 46.3161V45.0551C17.4472 45.1099 17.3192 45.1282 17.1365 45.1282C16.442 45.1282 16.1496 44.6713 16.1496 43.9768V38.7682H17.6299L17.6117 38.8048Z" fill="white"/>
<path d="M109.284 46.5905C106.78 46.5905 105.574 44.5985 105.574 41.985C105.574 39.3716 106.78 37.3429 109.284 37.3429C111.788 37.3429 112.994 39.3167 112.994 41.985C112.994 44.6533 111.788 46.5905 109.284 46.5905ZM109.284 38.6223C107.859 38.6223 107.585 40.2671 107.585 41.9667C107.585 43.6664 107.895 45.2198 109.284 45.2198C110.673 45.2198 110.984 43.6481 110.984 41.9667C110.984 40.2854 110.71 38.6223 109.284 38.6223Z" fill="white"/>
<path d="M145.307 46.5722C144.265 46.5722 143.37 46.298 142.84 45.9325L143.37 44.6349C143.699 44.9091 144.32 45.1467 145.051 45.1467C145.873 45.1467 146.422 44.6167 146.422 43.8856C146.422 43.1546 146.02 42.7525 145.124 42.4053C143.443 41.7656 143.096 40.8336 143.096 39.9198C143.096 38.4942 144.21 37.3429 145.928 37.3429C147.866 37.3429 147.738 39.1522 147.738 39.1522C147.482 38.9329 146.952 38.6587 146.312 38.6587C145.49 38.6587 145.033 39.207 145.033 39.8284C145.033 40.5594 145.581 40.9249 146.349 41.2356C148.085 41.9301 148.487 42.8256 148.487 43.8674C148.487 45.3294 147.262 46.5722 145.307 46.5722Z" fill="white"/>
<path d="M126.044 46.6084C123.668 46.6084 122.59 45.5667 122.59 43.5929V37.5071H124.6V43.7026C124.6 44.5433 125.057 45.2012 126.099 45.2012C126.684 45.2012 127.086 45.1098 127.433 44.9088V37.5071H129.443V45.8957C128.694 46.2978 127.579 46.6084 126.026 46.6084" fill="white"/>
<path d="M114.162 41.7653C114.162 44.7626 115.697 46.5902 118.475 46.5902C119.846 46.5902 120.851 46.316 121.418 45.9505V34.7657C121.418 34.7657 119.426 35.1129 119.426 36.776V37.7629C118.987 37.5619 118.512 37.3974 117.671 37.3974C115.606 37.3974 114.162 39.0971 114.162 41.7653ZM116.154 41.875C116.154 40.0291 116.684 38.5671 118.201 38.5671C118.75 38.5671 119.079 38.6584 119.407 38.8412V45.1647C119.133 45.2926 118.768 45.3474 118.384 45.3474C116.794 45.3474 116.154 43.995 116.154 41.875Z" fill="white"/>
<path d="M95.155 37.361C93.7295 37.361 92.7426 37.6352 92.0664 38.0007V49.9896C92.0664 49.9896 94.0585 49.6424 94.0585 47.9976V46.371C94.3509 46.4807 94.8809 46.5538 95.3926 46.5538C97.7319 46.5538 99.3036 44.781 99.3036 41.8752C99.3036 38.9693 97.7319 37.361 95.1368 37.361M94.9357 45.3476C94.5702 45.3476 94.2778 45.2927 94.0402 45.2014V38.75C94.3143 38.6403 94.625 38.5672 95.0819 38.5672C96.7267 38.5672 97.2933 39.81 97.2933 41.9483C97.2933 44.0865 96.5074 45.3658 94.9357 45.3658" fill="white"/>
<path d="M141.67 38.8048V37.5254H140.19V36.7761C140.19 35.1313 138.198 34.7658 138.198 34.7658V37.5072H137.211V38.7865H138.198V44.0865C138.198 45.3292 138.892 46.4989 140.647 46.4989C141.122 46.4989 141.487 46.3892 141.67 46.3161V45.0551C141.506 45.1099 141.378 45.1282 141.195 45.1282C140.501 45.1282 140.208 44.6713 140.208 43.9768V38.7682H141.689L141.67 38.8048Z" fill="white"/>
<path d="M103.598 37.361C101.771 37.361 100.309 38.1286 100.309 40.4314V46.4258H102.191V40.1207C102.191 38.9693 102.922 38.6403 103.964 38.6403C104.421 38.6403 104.859 38.7134 105.261 38.8414C105.261 38.8414 105.042 37.361 103.598 37.361Z" fill="white"/>
<path d="M134.156 46.5903C132.128 46.5903 130.629 44.8907 130.629 41.9483C130.629 39.0058 132.182 37.361 134.174 37.361C135.947 37.361 135.819 39.1155 135.819 39.1155C135.563 38.9145 135.198 38.7317 134.631 38.7317C133.261 38.7317 132.676 39.9745 132.676 41.9117C132.676 43.8489 133.352 45.3476 134.595 45.3476C135.143 45.3476 135.6 45.1831 135.874 44.9455L136.258 45.9689C135.892 46.2979 135.234 46.572 134.156 46.572" fill="white"/>
<path d="M45.079 39.6457V45.9508C44.4942 46.3346 43.4342 46.5905 42.0452 46.5905C39.5049 46.5905 37.8418 45.366 37.8418 43.3374C37.8418 41.6743 39.0297 40.5046 40.8025 39.9746V39.9381C39.3952 39.5543 38.5728 38.677 38.5728 37.4343C38.5728 35.9722 39.7608 34.8757 41.6615 34.8757C42.6118 34.8757 43.5073 35.1498 44.0008 35.4788L43.5804 36.3195C43.1966 36.1001 42.6118 35.8808 41.9356 35.8808C40.6197 35.8808 40.0166 36.5388 40.0166 37.5439C40.0166 38.677 40.9852 39.3532 42.1915 39.3532C43.6352 39.3532 45.2801 38.7136 46.5046 38.0557L46.9249 38.9877C46.468 39.207 45.7004 39.4995 45.079 39.6457ZM43.6535 39.9564C40.7111 40.6508 39.4135 41.4184 39.4135 43.246C39.4135 44.7081 40.3273 45.6219 42.1001 45.6219C42.7946 45.6219 43.2697 45.5488 43.6535 45.366V39.9381V39.9564Z" fill="white"/>
<path d="M199.969 5.28685C187.816 -3.6135 170.746 -0.981773 161.846 11.19C152.946 23.3434 155.577 40.4131 167.731 49.3134C179.884 58.2137 196.954 55.582 205.873 43.4286C214.773 31.2751 212.123 14.2055 199.969 5.28685Z" fill="white"/>
<mask id="mask0_1_643" style="mask-type:luminance" maskUnits="userSpaceOnUse" x="157" y="0" width="46" height="54">
<path d="M202.416 0.626637H157.184V53.1697H202.416V0.626637Z" fill="white"/>
</mask>
<g mask="url(#mask0_1_643)">
<mask id="mask1_1_643" style="mask-type:luminance" maskUnits="userSpaceOnUse" x="157" y="0" width="46" height="54">
<path d="M183.846 0.626846C175.641 0.626846 167.563 4.40995 162.354 11.5375C153.655 23.4168 156.232 40.1027 168.111 48.802C170.999 50.922 174.197 52.3658 177.468 53.17C177.176 52.0368 177.048 50.8489 177.139 49.6244C177.98 38.0375 189.64 36.411 189.549 24.9703C189.457 14.7906 173.466 15.741 175.44 7.75443C176.865 2.01581 189.695 -1.18246 202.433 8.13822C201.556 7.29754 200.624 6.4934 199.619 5.76236C194.885 2.28995 189.384 0.626846 183.92 0.60857H183.846V0.626846Z" fill="white"/>
</mask>
<g mask="url(#mask1_1_643)">
<path d="M170.659 -24.4071L127.732 34.223L185.389 76.437L228.316 17.8068L170.659 -24.4071Z" fill="url(#paint0_linear_1_643)"/>
</g>
</g>
<mask id="mask2_1_643" style="mask-type:luminance" maskUnits="userSpaceOnUse" x="168" y="5" width="43" height="49">
<path d="M210.511 5.92642H168.385V53.9554H210.511V5.92642Z" fill="white"/>
</mask>
<g mask="url(#mask2_1_643)">
<mask id="mask3_1_643" style="mask-type:luminance" maskUnits="userSpaceOnUse" x="168" y="5" width="43" height="49">
<path d="M183.701 5.92614C175.313 6.0358 168.478 15.0458 168.404 27.711V28.1496C168.441 35.533 170.78 44.1227 176.391 52.8951C178.785 53.5896 181.234 53.9368 183.683 53.9551H184.012C192.163 53.9003 200.204 50.1355 205.395 43.0444C212.723 33.0292 212.047 19.5965 204.518 10.4037C214.405 27.583 202.361 39.2613 198.395 30.763C194.228 21.7896 197.993 10.6413 188.745 6.89476C187.137 6.23683 185.547 5.92614 184.012 5.90787H183.701V5.92614Z" fill="white"/>
</mask>
<g mask="url(#mask3_1_643)">
<path d="M214.367 5.92642H168.385V53.9554H214.367V5.92642Z" fill="url(#paint1_radial_1_643)"/>
</g>
</g>
<mask id="mask4_1_643" style="mask-type:luminance" maskUnits="userSpaceOnUse" x="162" y="23" width="46" height="31">
<path d="M207.755 23.4528H162.906V53.9735H207.755V23.4528Z" fill="white"/>
</mask>
<g mask="url(#mask4_1_643)">
<mask id="mask5_1_643" style="mask-type:luminance" maskUnits="userSpaceOnUse" x="162" y="23" width="46" height="31">
<path d="M169.337 24.3663C164.731 26.4315 162.958 30.708 162.922 35.5512V35.8984C162.94 39.2794 163.799 42.898 165.097 46.2243C166.029 47.1563 167.034 48.0153 168.112 48.8012C179.992 57.5005 196.677 54.9236 205.377 43.0443C206.309 41.7649 207.095 40.4491 207.771 39.0784C204.536 41.3446 200.588 43.1174 196.769 42.2949C189.02 40.6501 183.354 23.4343 173.43 23.4343C172.151 23.4343 170.799 23.7267 169.355 24.3663" fill="white"/>
</mask>
<g mask="url(#mask5_1_643)">
<path d="M178.557 2.07049L146.664 45.6302L192.097 78.8939L223.989 35.3342L178.557 2.07049Z" fill="url(#paint2_linear_1_643)"/>
</g>
</g>
<defs>
<linearGradient id="paint0_linear_1_643" x1="195.986" y1="2.77921" x2="164.482" y2="45.8081" gradientUnits="userSpaceOnUse">
<stop stop-color="#00A1E4"/>
<stop offset="1" stop-color="#F49800"/>
</linearGradient>
<radialGradient id="paint1_radial_1_643" cx="0" cy="0" r="1" gradientUnits="userSpaceOnUse" gradientTransform="translate(189.496 29.8305) scale(22.589 22.589)">
<stop stop-color="#C5D8E3"/>
<stop offset="0.12" stop-color="#BFD5E1"/>
<stop offset="0.26" stop-color="#B1CFDB"/>
<stop offset="0.42" stop-color="#99C4D1"/>
<stop offset="0.58" stop-color="#77B6C4"/>
<stop offset="0.75" stop-color="#4CA3B3"/>
<stop offset="0.93" stop-color="#188C9E"/>
<stop offset="1" stop-color="#008295"/>
</radialGradient>
<linearGradient id="paint2_linear_1_643" x1="195.388" y1="27.7975" x2="180.629" y2="47.9553" gradientUnits="userSpaceOnUse">
<stop stop-color="#00A1E4"/>
<stop offset="1" stop-color="#F59C00"/>
</linearGradient>
</defs>
</svg>
